<?xml version="1.0" encoding="UTF-8" standalone="no"?>
<!-- Created with Inkscape (http://www.inkscape.org/) -->

<svg
   xmlns:dc="http://purl.org/dc/elements/1.1/"
   xmlns:cc="http://creativecommons.org/ns#"
   xmlns:rdf="http://www.w3.org/1999/02/22-rdf-syntax-ns#"
   xmlns:svg="http://www.w3.org/2000/svg"
   xmlns="http://www.w3.org/2000/svg"
   xmlns:sodipodi="http://sodipodi.sourceforge.net/DTD/sodipodi-0.dtd"
   xmlns:inkscape="http://www.inkscape.org/namespaces/inkscape"
   id="svg2"
   version="1.1"
   inkscape:version="0.48.4 r9939"
   width="779.525"
   height="779.525"
   xml:space="preserve"
   sodipodi:docname="Vinil_22cm.ai"><metadata
     id="metadata8"><rdf:RDF><cc:Work
         rdf:about=""><dc:format>image/svg+xml</dc:format><dc:type
           rdf:resource="http://purl.org/dc/dcmitype/StillImage" /><dc:title></dc:title></cc:Work></rdf:RDF></metadata><defs
     id="defs6"><clipPath
       clipPathUnits="userSpaceOnUse"
       id="clipPath16"><path
         d="m 0,623.62 623.62,0 L 623.62,0 0,0 0,623.62 z"
         id="path18" /></clipPath><clipPath
       clipPathUnits="userSpaceOnUse"
       id="clipPath40"><path
         d="m 0,623.62 623.62,0 L 623.62,0 0,0 0,623.62 z"
         id="path42" /></clipPath></defs><sodipodi:namedview
     pagecolor="#ffffff"
     bordercolor="#666666"
     borderopacity="1"
     objecttolerance="10"
     gridtolerance="10"
     guidetolerance="10"
     inkscape:pageopacity="0"
     inkscape:pageshadow="2"
     inkscape:window-width="640"
     inkscape:window-height="480"
     id="namedview4"
     showgrid="false"
     inkscape:zoom="0.30274846"
     inkscape:cx="389.76251"
     inkscape:cy="389.76251"
     inkscape:window-x="633"
     inkscape:window-y="72"
     inkscape:window-maximized="0"
     inkscape:current-layer="g10" /><g
     id="g10"
     inkscape:groupmode="layer"
     inkscape:label="Vinil_22cm"
     transform="matrix(1.25,0,0,-1.25,0,779.525)"><g
       id="g12"><g
         id="g14"
         clip-path="url(#clipPath16)"><g
           id="g20"
           transform="translate(602.5439,311.8105)"><path
             d="m 0,0 c 0,-160.568 -130.165,-290.734 -290.733,-290.734 -160.569,0 -290.735,130.166 -290.735,290.734 0,160.568 130.166,290.734 290.735,290.734 C -130.165,290.734 0,160.568 0,0 z"
             style="fill:none;stroke:#f48326;stroke-opacity:1;stroke-width:25;stroke-linecap:butt;stroke-linejoin:miter;stroke-miterlimit:10;stroke-dasharray:none"
             id="path22" /></g><g
           id="g24"
           transform="translate(357.3086,351.5703)"><path
             d="m 0,0 c 0,12.767 10.395,23.155 23.148,23.155 l 105.623,0 c 12.774,0 23.157,-10.388 23.157,-23.155 l 0,-41.518 c 0,-12.789 -10.383,-23.153 -23.157,-23.153 l -105.623,0 C 10.395,-64.671 0,-54.307 0,-41.518 L 0,0 z m 198.745,-41.631 0,41.744 c -0.066,38.523 -31.429,69.858 -69.974,69.858 l -105.623,0 C -15.433,69.971 -46.83,38.581 -46.83,0 l 0,-41.518 c 0,-38.596 31.397,-69.97 69.978,-69.97 l 105.623,0 c 38.545,0 69.908,31.315 69.974,69.857 M -145.721,23.7 c 11.997,0 21.903,-9.043 23.279,-20.654 l -4.341,0.031 -99.122,0 c 2.329,-26.301 24.313,-46.609 50.918,-46.398 0.055,0 0.098,0.009 0.153,0.009 l 52.49,-0.005 c -0.776,-12.235 -10.952,-21.908 -23.182,-21.956 l -144.157,-0.048 c 1.935,-26.763 24.107,-47.518 50.995,-47.293 0.055,-0.017 0.102,-0.008 0.151,0 l 93.722,-0.008 c 38.119,-0.004 69.889,31.7 69.948,70.725 l 0,42.271 c -0.059,39.004 -31.829,70.73 -70.854,70.73 l -144.021,0 c 0,-26.238 21.266,-47.505 47.499,-47.404 l 96.522,0 z"
             style="fill:#00b4ff;fill-opacity:1;fill-rule:nonzero;stroke:none"
             id="path26" /></g><g
           id="g28"
           transform="translate(229.4888,201.5732)"><path
             d="m 0,0 -92.208,-0.076 c 0.067,-8.184 6.814,-14.77 15.07,-14.703 0.014,0 0.031,0.004 0.044,0.004 l 25.465,-0.002 c -0.454,-1.507 -0.745,-3.08 -0.84,-4.707 l -27.537,-0.09 c 0.065,-8.185 6.812,-14.766 15.068,-14.701 0.016,0 0.029,0.004 0.043,0.004 l 12.384,0.003 0,-4.6 -15.82,-0.104 c 0.067,-8.185 6.813,-14.766 15.07,-14.701 0.015,0 0.028,0.003 0.043,0.003 l 1.43,0.001 0,0.032 c 7.357,0.373 13.215,6.362 13.274,13.731 l 0.003,0 0,0.07 c 0,0.014 0.003,0.029 0.003,0.04 0,0.013 -0.003,0.027 -0.003,0.041 l 0,19.023 c 0,3.779 3.109,6.863 6.921,6.863 l 31.59,0 c 3.823,0 6.924,-3.084 6.924,-6.863 l 0,-19.023 c 0,-0.014 -0.001,-0.028 -0.001,-0.041 0,-7.662 6.27,-13.877 14.003,-13.877 l 0,32.941 C 20.926,-9.302 11.539,0 0,0 m 81.451,-0.08 -31.43,0 c -11.48,0 -20.818,-9.257 -20.818,-20.632 l 0,-12.244 c 0,-11.38 9.338,-20.632 20.818,-20.632 l 31.43,0 c 11.477,0 20.822,9.252 20.822,20.632 l 0,12.244 c 0,11.375 -9.345,20.632 -20.822,20.632 M 43.136,-20.712 c 0,3.763 3.093,6.828 6.885,6.828 l 31.43,0 c 3.801,0 6.889,-3.065 6.889,-6.828 l 0,-12.244 c 0,-3.772 -3.088,-6.827 -6.889,-6.827 l -31.43,0 c -3.792,0 -6.885,3.055 -6.885,6.827 l 0,12.244 z m 130.482,20.506 c -8.864,0.393 -17.512,-4.435 -21.499,-12.899 -0.285,-0.613 -12.097,-26.194 -12.097,-26.194 -0.214,-0.368 -1.067,-0.611 -1.331,0.195 l -12.165,25.817 -10e-4,0 c -0.001,0 -0.001,0.002 -0.001,0.006 -4.043,8.579 -12.806,13.474 -21.793,13.075 l 21.126,-44.33 c 4.855,-12.099 20.363,-14.067 27.373,1.383 l 20.388,42.912 -0.028,-0.025 0.028,0.06 z m 73.583,-32.784 0,12.31 c -0.018,11.362 -9.353,20.6 -20.824,20.6 l -31.424,0 c -11.483,0 -20.823,-9.257 -20.823,-20.632 l 0,-12.244 c 0,-11.38 9.34,-20.632 20.823,-20.632 l 31.424,0 c 11.471,0 20.806,9.233 20.824,20.598 m -59.137,12.278 c 0,3.763 3.094,6.828 6.889,6.828 l 31.424,0 c 3.805,0 6.892,-3.065 6.892,-6.828 l 0,-12.244 c 0,-3.772 -3.087,-6.827 -6.892,-6.827 l -31.424,0 c -3.795,0 -6.889,3.055 -6.889,6.827 l 0,12.244 z"
             style="fill:#f48326;fill-opacity:1;fill-rule:nonzero;stroke:none"
             id="path30" /></g></g></g><text
       transform="matrix(1,0,0,-0.99108099,340.2939,114.8779)"
       id="text32"><tspan
         style="fill:#f48326;fill-opacity:1;fill-rule:nonzero;stroke:none;font-family:Carnas Light;font-variant:normal;font-weight:300;font-stretch:normal;font-size:36.0354;writing-mode:lr;-inkscape-font-specification:Carnas-Light"
         x="0 11.531328 34.7381256 50.990091 75.74280726 87.27413526 110.98542846"
         y="0"
         sodipodi:role="line"
         id="tspan34">.org.br</tspan></text>
<g
       id="g36"><g
         id="g38"
         clip-path="url(#clipPath40)"><g
           id="g44"
           transform="translate(346.2754,116.5566)"><path
             d="m 0,0 c 0,1.75 -0.973,2.071 -1.981,2.071 -1.082,0 -2.018,-0.536 -2.018,-2.071 0,-1.643 1.081,-2 1.945,-2 C -0.9,-2 0,-1.536 0,0 z"
             style="fill:none;stroke:#f48326;stroke-opacity:1;stroke-width:1;stroke-linecap:butt;stroke-linejoin:miter;stroke-miterlimit:10;stroke-dasharray:none"
             id="path46" /></g><g
           id="g48"
           transform="translate(369.5186,123.9141)"><path
             d="m 0,0 c 0,7.999 -2.45,9.249 -7.748,9.249 -4.685,0 -7.999,-1.606 -7.999,-9.356 0,-7.537 2.378,-9.393 7.747,-9.393 5.586,0 8,2 8,9.5 z m -2.631,-0.144 c 0,-6.285 -1.802,-7.071 -5.297,-7.071 -3.676,0 -5.225,1.036 -5.225,7.215 0,5.785 1.946,6.928 5.334,6.928 3.855,0 5.188,-1.035 5.188,-7.072 z"
             style="fill:none;stroke:#f48326;stroke-opacity:1;stroke-width:1;stroke-linecap:butt;stroke-linejoin:miter;stroke-miterlimit:10;stroke-dasharray:none"
             id="path50" /></g><g
           id="g52"
           transform="translate(380.6523,115.5205)"><path
             d="m 0,0 0,12.786 c 0,0.535 0.072,0.893 0.181,1.035 0.144,0.286 0.396,0.465 0.612,0.572 0.721,0.428 2.162,0.786 3.748,0.786 0.396,0 1.261,-0.072 1.514,-0.072 0.324,0 0.54,0.179 0.612,0.464 0.072,0.394 0.108,1.036 0.108,1.322 0,0.322 -0.18,0.464 -0.468,0.536 -0.397,0.071 -1.154,0.142 -1.766,0.142 -2.379,0 -5.405,-0.964 -6.307,-1.75 -0.576,-0.5 -0.792,-0.892 -0.792,-2.035 L -2.558,0 c 0,-0.464 0.18,-0.714 0.685,-0.714 l 1.188,0 C -0.144,-0.714 0,-0.429 0,0 z"
             style="fill:none;stroke:#f48326;stroke-opacity:1;stroke-width:1;stroke-linecap:butt;stroke-linejoin:miter;stroke-miterlimit:10;stroke-dasharray:none"
             id="path54" /></g><g
           id="g56"
           transform="translate(405.625,115.4492)"><path
             d="m 0,0 0,-0.785 c 0,-1.25 -0.144,-2.286 -0.576,-3.108 -0.793,-1.571 -2.559,-2.571 -8.685,-2.75 -0.432,0 -0.648,-0.321 -0.648,-0.75 0,-0.25 0,-0.714 0.036,-1.036 0.071,-0.392 0.324,-0.5 0.9,-0.5 5.874,0 10.054,1.286 11.099,4.572 0.396,1.322 0.541,2.678 0.541,4.464 l 0,15.429 c 0,0.893 -0.396,1.25 -1.081,1.464 -1.657,0.5 -3.748,0.679 -5.657,0.679 -5.731,0 -8.325,-2.215 -8.325,-9.75 C -12.396,1.25 -10.09,-1 -5.117,-1 -2.883,-1 -1.081,-0.714 0,0 z M 0.108,3.357 C 0.108,3.036 0.072,2.679 0,2.536 -0.107,2.25 -0.396,2.036 -0.757,1.893 -1.874,1.429 -3.531,1.25 -5.009,1.25 c -3.783,0 -4.793,2.25 -4.793,6.857 0,5.107 0.938,7.25 5.731,7.25 1.26,0 2.738,-0.107 3.567,-0.393 0.397,-0.143 0.612,-0.393 0.612,-1.071 l 0,-10.536 z"
             style="fill:none;stroke:#f48326;stroke-opacity:1;stroke-width:1;stroke-linecap:butt;stroke-linejoin:miter;stroke-miterlimit:10;stroke-dasharray:none"
             id="path58" /></g><g
           id="g60"
           transform="translate(422.0205,116.5566)"><path
             d="m 0,0 c 0,1.75 -0.973,2.071 -1.981,2.071 -1.082,0 -2.018,-0.536 -2.018,-2.071 0,-1.643 1.081,-2 1.945,-2 C -0.9,-2 0,-1.536 0,0 z"
             style="fill:none;stroke:#f48326;stroke-opacity:1;stroke-width:1;stroke-linecap:butt;stroke-linejoin:miter;stroke-miterlimit:10;stroke-dasharray:none"
             id="path62" /></g><g
           id="g64"
           transform="translate(430.6338,117.5918)"><path
             d="m 0,0 c 0,-0.75 0.071,-1.25 0.252,-1.571 0.216,-0.393 0.648,-0.714 1.225,-0.893 1.225,-0.429 3.208,-0.714 5.117,-0.714 5.729,0 8.541,1.714 8.541,9.572 0,6.5 -1.983,9.106 -6.271,9.106 -2.486,0 -4.972,-0.535 -6.306,-1.606 l 0,9.356 C 2.558,23.75 2.45,24 1.909,24 L 0.685,24 C 0.216,24 0,23.715 0,23.25 L 0,0 z m 2.558,0.822 0,10.072 c 0,0.321 0.036,0.606 0.108,0.785 0.108,0.215 0.288,0.357 0.541,0.5 1.081,0.715 3.314,0.965 4.756,0.965 4,0 4.541,-2.358 4.541,-7 0,-5.179 -0.865,-7.072 -5.838,-7.072 -0.937,0 -2.27,0.143 -3.099,0.357 C 3.207,-0.5 2.918,-0.321 2.774,-0.106 2.63,0.072 2.558,0.429 2.558,0.822 z"
             style="fill:none;stroke:#f48326;stroke-opacity:1;stroke-width:1;stroke-linecap:butt;stroke-linejoin:miter;stroke-miterlimit:10;stroke-dasharray:none"
             id="path66" /></g><g
           id="g68"
           transform="translate(456.9023,115.5205)"><path
             d="m 0,0 0,12.786 c 0,0.535 0.072,0.893 0.181,1.035 0.144,0.286 0.396,0.465 0.612,0.572 0.721,0.428 2.162,0.786 3.748,0.786 0.396,0 1.261,-0.072 1.514,-0.072 0.324,0 0.54,0.179 0.612,0.464 0.072,0.394 0.108,1.036 0.108,1.322 0,0.322 -0.18,0.464 -0.468,0.536 -0.397,0.071 -1.154,0.142 -1.766,0.142 -2.379,0 -5.405,-0.964 -6.307,-1.75 -0.576,-0.5 -0.792,-0.892 -0.792,-2.035 L -2.558,0 c 0,-0.464 0.18,-0.714 0.685,-0.714 l 1.188,0 C -0.144,-0.714 0,-0.429 0,0 z"
             style="fill:none;stroke:#f48326;stroke-opacity:1;stroke-width:1;stroke-linecap:butt;stroke-linejoin:miter;stroke-miterlimit:10;stroke-dasharray:none"
             id="path70" /></g></g></g></g></svg>