<!-- Created with Inkscape (http://www.inkscape.org/) -->
<svg xmlns:rdf="http://www.w3.org/1999/02/22-rdf-syntax-ns#" xmlns="http://www.w3.org/2000/svg" height="108.87" width="250" version="1.1" xmlns:cc="http://creativecommons.org/ns#" xmlns:dc="http://purl.org/dc/elements/1.1/">
	<metadata>
		<rdf:RDF>
			<cc:Work rdf:about="">
				<dc:format>image/svg+xml</dc:format>
				<dc:type rdf:resource="http://purl.org/dc/dcmitype/StillImage"/>
				<dc:title/>
			</cc:Work>
		</rdf:RDF>
	</metadata>
	<g transform="translate(-176.35,201.41)">
		<g transform="matrix(0.66022,0,0,0.66039,59.92,-31.43)">
			<path fill="#da251c" d="m176.35-92.548,0-164.85,378.66,0,0,164.85-378.66,0z"/>
			<path fill="#FF0" d="m237.56-142.7-10.09-9.86,21.89-21.85c6.41,4.5,14.22,7.14,22.65,7.14,5.79,0,11.37-1.28,16.32-3.53l-31.13-31.21-14.75,14.89-14.95-14.8,29.76-29.64h29.64l-19.78,19.75,32.87,32.99c7.23-7.17,11.5-16.95,11.5-27.94,0-13.69-6.85-25.73-17.44-32.81,18.65,5.27,32.25,22.27,32.25,42.61,0,12.34-4.95,23.5-13.08,31.55l13.12,12.89-9.87,9.82-14.56-14.42c-6,3.02-12.8,4.73-19.99,4.73-9.81,0-18.84-3.12-26.19-8.51l-18.17,18.2z"/>
			<path fill="#FFF" d="m336.37-231.21,0,88.93,10.1,0,0-34.56,4.93,0c8.26,0,14.78-6.55,14.78-14.81v-0.1-24.66c0-8.24-6.79-14.84-15.03-14.84h-4.87-9.88zm49.53,0c-8.13,0-14.78,6.69-14.78,14.9v59.22c0,8.12,6.61,14.81,14.78,14.81,8.18,0,14.81-6.67,14.81-14.81v-19.75h-9.87v19.75c0,2.75-2.18,4.94-4.94,4.94s-4.9-2.19-4.9-4.94v-59.25c0-2.79,2.17-5.06,4.93-5.06,2.75,0,4.94,2.27,4.94,5.06v19.75h9.84v-19.75c0-8.22-6.64-14.87-14.78-14.87zm88.81,0,0,88.93,14.82,0c8.23,0,14.78-6.57,14.78-14.81v-24.66c0-5.5-4.38-9.9-9.88-9.9,5.5,0,9.88-4.49,9.88-9.88v-14.81c0-8.24-6.55-14.87-14.78-14.87h-14.82zm-128.24,9.93,4.93,0c2.74,0,4.91,2.2,4.91,4.94v24.69c0,2.71-2.2,4.94-4.91,4.94h-4.93v-34.57zm78.9,0,0,24.69-4.94,0c-7.53,0-14.78,7.28-14.78,14.81v24.66c0,7.37,6.04,14.84,14.82,14.84h14.78v-78.97h-9.84zm59.19,0,4.94,0c2.72,0,4.93,2.23,4.93,4.97v14.78c0,2.71-2.22,4.94-4.93,4.94h-4.94v-24.69zm-29.59,24.69c-8.42,0-14.79,6.21-14.79,14.81v24.69c-0.12,8.4,7.69,14.81,14.79,14.81,7.09,0,14.81-6.51,14.81-14.81v-24.69c0.1-8.46-6.85-14.81-14.81-14.81zm-34.54,9.88,4.94,0,0,34.56-4.94,0c-2.8,0-4.94-2.32-4.9-4.94v-24.69c0-2.67,1.92-4.87,4.9-4.93zm34.54,0c2.52,0,4.9,2.1,4.93,4.93v24.69c0,2.49-2.67,4.96-4.93,4.94-2.82,0-4.98-2.33-4.94-4.94v-24.69c0-2.67,1.94-4.91,4.94-4.93zm29.59,0,4.94,0c2.33,0,4.93,2.67,4.93,4.93v24.69c0,2.72-2.21,4.94-4.93,4.94h-4.94v-34.56z"/>
			<path fill="#FFF" d="m495.99-132.21,2.98,0,0,13.6,5.39,0,0,2.79-8.37,0,0-16.39zm-5.5,0,2.99,0,0,16.39-2.99,0,0-16.39zm-8.56,10.64,0,1.04c0,1.77,0.27,2.62,1.65,2.62,1.27,0,1.93-0.68,1.93-1.94,0-1.19-0.6-1.73-1.84-2.63l-1.53-1.11c-2.04-1.45-3.04-2.3-3.04-4.61,0-2.75,1.7-4.4,4.49-4.4,2.96,0,4.6,1.7,4.6,4.81v0.59h-2.84v-0.44c0-1.73-0.51-2.48-1.84-2.48-0.95,0-1.52,0.61-1.52,1.63,0,1.05,0.72,1.53,1.87,2.32l1.64,1.13c2.11,1.44,3,2.55,3,4.94,0,2.98-1.7,4.66-4.81,4.66-3.22,0-4.78-1.67-4.78-5.16v-0.97h2.98zm-11.48-10.64,4,0,3.64,16.39-3.21,0-0.79-4.12-3.43,0-0.77,4.12-3.04,0,3.6-16.39zm3.21,9.8-1.27-6.87-1.26,6.87,2.53,0zm-17.94-9.8,5.35,0c3.22,0,4.55,1.24,4.55,4.3,0,2.12-0.78,3.37-2.25,3.59,2.19,0.58,2.15,1.76,2.22,3.87l0.12,2.19c0,1.06,0.21,1.82,0.81,2.44h-3.53c-0.22-0.71-0.27-1.53-0.28-2.56v-1.72-0.43c0-2.13-0.87-2.48-3-2.48h-1.02v7.19h-2.88v-16.39zm4.6,6.92c1.73,0,2.3-0.6,2.3-2.43,0-1.74-0.75-2.2-2.55-2.2h-1.47v4.63h1.72zm-15.78-6.92,4.8,0c2.73,0,4.06,1.29,4.06,3.99,0,2.17-0.66,3.36-1.98,3.59,1.47,0.22,2.39,1.54,2.39,3.75,0,3.49-1.39,5.06-4.4,5.06h-4.87v-16.39zm3.9,6.65c1.51,0,1.97-0.58,1.97-2.34,0-1.65-0.5-2.09-2.06-2.09h-0.91v4.43h1l0.23,7.41c1.54,0,2.09-0.67,2.09-2.6,0-2.07-0.63-2.61-2.43-2.61h-0.89v5.21h1.24l-0.24-7.41zm-20.43-4.98c0.98-1.55,2.19-2.06,4.22-2.06,2.02,0,3.23,0.51,4.22,2.06,0.71,1.16,0.97,3.29,0.97,6.51s-0.26,5.37-0.97,6.53c-0.99,1.55-2.2,2.06-4.22,2.06-2.03,0-3.24-0.51-4.22-2.06-0.72-1.14-0.98-3.29-0.98-6.53,0-3.22,0.26-5.37,0.98-6.51zm4.24,12.66c2.04,0,2.13-1.87,2.13-6.15,0-4.26-0.13-6.16-2.16-6.16-2.06,0-2.15,1.9-2.15,6.16,0,4.28,0.13,6.15,2.18,6.15zm-17.01-14.33,4.8,0c1.75,0,2.93,0.23,3.77,1.08,1.36,1.38,1.53,3.29,1.53,6.1,0,3.17,0,5.57-1.04,7.39-0.9,1.64-2.36,1.81-4.95,1.81h-4.11v-16.38zm4.25,13.97c1.01,0,1.66,0,2.06-0.66,0.69-1.04,0.76-2.76,0.76-5.31,0-2.6-0.12-4.23-0.91-5.1-0.4-0.44-1-0.5-1.96-0.5h-1.28v11.57h1.33zm-18.79-13.97,4,0,3.64,16.38-3.21,0-0.79-4.11-3.43,0-0.77,4.11-3.04,0,3.6-16.38zm3.21,9.8-1.27-6.87-1.26,6.87,2.53,0zm-12.63-7.1-3.43,0,0-2.7,9.84,0,0,2.7-3.43,0,0,13.68-2.98,0,0-13.68zm-10.43,7.93,0,1.05c0,1.77,0.29,2.62,1.65,2.62,1.28,0,1.94-0.68,1.94-1.94,0-1.19-0.6-1.73-1.84-2.63l-1.52-1.11c-2.05-1.45-3.05-2.3-3.05-4.61,0-2.75,1.7-4.4,4.48-4.4,2.96,0,4.6,1.7,4.6,4.81v0.59h-2.83v-0.44c0-1.73-0.52-2.48-1.84-2.48-0.95,0-1.53,0.61-1.53,1.63,0,1.05,0.73,1.53,1.88,2.32l1.63,1.13c2.12,1.44,3,2.55,3,4.94,0,2.98-1.7,4.66-4.81,4.66-3.21,0-4.77-1.67-4.77-5.16v-0.97h2.97zm-8.39-10.63,2.99,0,0,16.38-2.99,0,0-16.38zm-12.7,0,3.08,0,4.17,11.46-0.12-11.46,2.81,0,0,16.38-3.05,0-4.2-11.48,0.12,11.48-2.81,0,0-16.38zm-9.72,0,0,11.05c0,2.26,0.36,3.25,2.06,3.25,1.68,0,2.03-1,2.03-3.3v-11h2.93v11.31c0,1.56,0,2.75-0.78,3.75-0.85,1.12-2.27,1.71-4.23,1.71-3.8,0-5-1.59-5-5.46v-11.31h2.99zm-18.88,0,4.49,0,2.2,10.61,2.19-10.61,4.5,0,0,16.38-2.87,0,0-14.53-2.97,14.53-1.84,0-2.97-14.53,0,14.53-2.85,0,0-16.38zm-11.42,1.67c0.97-1.55,2.2-2.06,4.22-2.06s3.23,0.51,4.22,2.06c0.72,1.16,0.97,3.29,0.97,6.51s-0.25,5.37-0.97,6.53c-0.99,1.55-2.2,2.06-4.22,2.06s-3.25-0.51-4.22-2.06c-0.73-1.14-0.98-3.29-0.98-6.53,0-3.22,0.25-5.37,0.98-6.51zm4.23,12.66c2.06,0,2.13-1.87,2.13-6.15,0-4.26-0.13-6.16-2.14-6.16-2.07,0-2.16,1.9-2.16,6.16,0,4.28,0.13,6.15,2.17,6.15zm-6.88-3.78v0.62c0,3.8-1.54,5.6-4.75,5.6-1.49,0-2.58-0.36-3.39-1.24-1.36-1.43-1.48-3.78-1.48-7.53,0-3.14,0.23-5.21,0.82-6.27,0.87-1.52,2.11-2.12,4.05-2.12,3.26,0,4.65,1.65,4.66,5.46h-2.9v-0.39c0-1.76-0.55-2.63-1.7-2.63-1.85,0-1.85,1.72-1.85,5.9,0,4.57,0,6.35,1.84,6.35,1.42,0,1.79-1.03,1.79-3.54v-0.21h2.88zm-26.43-8.88c0.98-1.55,2.19-2.06,4.22-2.06,2.02,0,3.23,0.51,4.21,2.06,0.72,1.16,0.99,3.29,0.99,6.51s-0.27,5.37-0.99,6.53c-0.98,1.55-2.19,2.06-4.21,2.06-2.03,0-3.24-0.51-4.22-2.06-0.72-1.14-0.98-3.29-0.98-6.53,0-3.22,0.26-5.37,0.98-6.51zm4.24,12.66c2.04,0,2.13-1.87,2.13-6.15,0-4.26-0.13-6.16-2.15-6.16-2.07,0-2.16,1.9-2.16,6.16,0,4.28,0.13,6.15,2.18,6.15zm-17.01-14.33,4.8,0c1.75,0,2.94,0.23,3.77,1.08,1.37,1.38,1.53,3.29,1.53,6.1,0,3.17,0,5.57-1.04,7.39-0.9,1.64-2.36,1.81-4.95,1.81h-4.11v-16.38zm4.25,13.97c1.01,0,1.66,0,2.06-0.66,0.68-1.04,0.76-2.76,0.76-5.31,0-2.6-0.12-4.23-0.91-5.1-0.4-0.44-1-0.5-1.96-0.5h-1.28v11.57h1.33zm-9.96-13.97,2.98,0,0,16.38-2.98,0,0-16.38zm-8.2,2.7-3.43,0,0-2.7,9.85,0,0,2.7-3.44,0,0,13.68-2.98,0,0-13.68zm-14.36-2.7,5.35,0c3.21,0,4.55,1.23,4.55,4.3,0,2.12-0.79,3.37-2.25,3.58,2.19,0.59,2.15,1.77,2.21,3.88l0.13,2.19c0,1.06,0.21,1.82,0.81,2.43h-3.54c-0.21-0.7-0.26-1.52-0.28-2.55v-1.72-0.43c0-2.13-0.88-2.48-3-2.48h-1.03v7.18h-2.87v-16.38zm4.6,6.92c1.73,0,2.3-0.6,2.3-2.44,0-1.73-0.75-2.2-2.55-2.2h-1.47v4.64h1.72zm-13.4-6.92,4,0,3.65,16.38-3.21,0-0.8-4.11-3.43,0-0.76,4.11-3.05,0,3.6-16.38zm3.21,9.8-1.27-6.87-1.25,6.87,2.52,0zm-16.21-9.8,5.18,0c3.13,0,4.46,1.31,4.46,4.63,0,3.25-1.48,4.8-4.5,4.8h-2.18v6.95h-2.96v-16.38zm4.14,7.17c1.81,0,2.51-0.61,2.51-2.46,0-1.96-0.7-2.43-2.47-2.43h-1.3v4.89h1.26z"/>
		</g>
	</g>
</svg>