<?xml version="1.0" encoding="UTF-8" standalone="no"?>
<svg xmlns:dc="http://purl.org/dc/elements/1.1/" xmlns:cc="http://creativecommons.org/ns#" xmlns:rdf="http://www.w3.org/1999/02/22-rdf-syntax-ns#" xmlns="http://www.w3.org/2000/svg" width="200" height="113.69403">
  <title>Partido Socialista Brasileiro (PSB)</title>
  <metadata>
    <rdf:RDF>
      <cc:Work rdf:about="">
        <dc:format>image/svg+xml</dc:format>
        <dc:type rdf:resource="http://purl.org/dc/dcmitype/StillImage"/>
        <dc:title>Partido Socialista Brasileiro (PSB)</dc:title>
      </cc:Work>
    </rdf:RDF>
  </metadata>
  <g transform="translate(-43.706516,-268.0876)">
    <g>
      <path d="m 188.85246,289.84149 c 0.53153,0.11755 1.02218,0.22999 1.45149,0.33221 l -0.13288,0.26065 -1.34416,0.18399 0.0256,-0.77685 z" style="fill:#ed1c24;fill-opacity:1;fill-rule:nonzero;stroke:none"/>
      <path d="m 186.47794,311.23972 c 1.10906,-3.60317 3.03586,-6.1075 3.57762,-11.44837 0.26065,-2.35101 0.36798,-3.78717 0.10732,-6.18417 l -0.1891,-4.37491 c -1.68148,0.046 -3.48051,-0.0256 -4.81445,-2.0648 -0.79218,-0.94551 -1.0835,-2.54522 -1.29816,-3.86893 -0.046,-1.79903 -0.46509,-3.32719 -1.47193,-4.84512 1.85013,0.15333 4.35958,2.94387 5.37664,5.34598 0.65931,1.56904 0.54687,3.27608 2.48389,4.24203 l 0.0613,-6.58281 c -0.5622,-0.36287 -1.14484,-1.37994 -1.46682,-1.92169 -0.90974,-1.81436 -0.58775,-4.06315 0.0971,-6.60837 0.74108,-1.38505 0.50598,-3.52651 0.22488,-4.82978 2.83654,-0.22488 5.56575,2.96431 5.06489,7.5181 -0.0767,2.20279 -1.46172,3.5674 -3.10742,5.31021 l -0.10222,2.61166 c 1.27261,-0.48043 2.04436,-2.45834 3.31696,-2.93876 0.58264,-0.12266 1.16529,-0.24532 1.74281,-0.36287 1.05285,-0.34754 1.73259,-2.62188 2.31012,-4.36469 0.52642,1.92169 0.54687,4.19603 0.0664,5.75485 -0.95062,1.74281 -1.56904,2.68321 -3.17896,3.25052 -1.21639,0.64908 -3.52651,0.59286 -4.2267,1.39527 l -0.11244,3.34763 1.34416,-0.184 c 0.40887,-0.84329 1.02729,-1.81436 2.43789,-2.27434 1.21639,-0.53664 2.56566,-0.52131 3.77694,-0.52131 1.2215,-0.21466 1.91658,-1.01706 3.49584,-1.90125 -0.95573,3.48562 -1.99324,5.28465 -4.12448,6.59304 -2.10568,0.6593 -3.77694,-0.20444 -5.52486,-0.6593 l -1.40549,0.0307 -0.0204,2.7241 c 0.15843,2.64744 -0.16866,4.51291 -0.0102,7.15523 0,2.33057 0.0613,5.97462 -0.60308,7.55389 -1.18572,0.50597 -2.26923,2.27434 -3.82805,3.1023" style="fill:#ed1c24;fill-opacity:1;fill-rule:evenodd;stroke:none"/>
      <path d="m 182.0463,294.26547 c 0,0.91996 -0.76152,1.67126 -1.6917,1.67126 -0.93018,0 -1.6917,-0.7513 -1.6917,-1.67126 0,-0.91996 0.76152,-1.67126 1.6917,-1.67126 0.93018,0 1.6917,0.7513 1.6917,1.67126" style="fill:#ed1c24;fill-opacity:1;fill-rule:nonzero;stroke:none"/>
      <path d="m 187.72909,338.61002 0,0 -14.39735,18.55761 c 2.64232,-0.0767 8.63739,-0.0767 10.95773,-0.0767 l 3.52139,-18.48094 -0.0818,0 z m 13.19629,29.39267 -7.20123,0 -2.47877,12.65966 -11.75503,0 2.40211,-12.65966 -20.39241,0 0.15844,-10.35464 24.23068,-30.74706 15.5933,0 -5.67819,29.94976 7.20123,0 -2.08013,11.15194 z" style="fill:#ed1c24;fill-opacity:1;fill-rule:nonzero;stroke:none"/>
      <path d="m 225.87465,336.2999 0,0 c -10.39553,0 -13.43651,19.99376 -13.43651,27.31766 0,5.10066 1.83992,7.48744 5.35621,7.48744 8.47895,0 13.35984,-16.32927 13.35984,-27.31766 0,-5.09555 -1.83992,-7.48744 -5.27954,-7.48744 m -9.43469,45.15974 c -10.64085,0 -16.55414,-5.81107 -16.55414,-18.00052 0,-19.67178 10.71241,-37.27365 26.8679,-37.27365 12.15879,0 16.95279,7.00701 16.95279,17.84208 0,16.40593 -8.23363,37.43209 -27.26655,37.43209" style="fill:#ed1c24;fill-opacity:1;fill-rule:nonzero;stroke:none"/>
      <path d="m 68.642502,338.53029 0,0 c -0.965956,0 -1.528153,0 -2.172124,0.0818 l -2.49411,13.14008 c 0.485534,0.0767 0.807519,0.0767 0.965956,0.0767 5.310205,0 8.765161,-4.29825 8.765161,-8.76005 0,-2.46855 -1.44638,-4.53846 -5.064883,-4.53846 m -4.748008,25.6464 c -0.480423,0 -1.364605,0 -2.412336,-0.0767 l -3.13297,16.56436 -14.642672,0 10.298424,-53.76135 c 4.983109,-0.24021 10.375088,-0.39865 16.809686,-0.39865 10.538636,0 18.261177,4.62023 18.261177,14.81133 0,12.18945 -10.298425,22.86097 -25.181309,22.86097" style="fill:#ed1c24;fill-opacity:1;fill-rule:nonzero;stroke:none"/>
      <path d="m 116.02037,339.56576 c -2.33056,-0.7973 -5.14666,-1.43105 -7.64077,-1.43105 -5.3102,0 -7.07857,1.8297 -7.07857,4.38003 0,5.73441 14.23381,5.96951 14.23381,19.03292 0,11.07016 -9.97133,20.23397 -24.210245,20.23397 -4.1807,0 -8.044526,-0.39864 -11.019059,-0.95573 l 2.575884,-13.77894 c 2.974533,1.11418 6.112613,1.74793 9.250694,1.74793 4.906445,0 7.237007,-1.43105 7.237007,-4.53847 0,-5.7344 -14.238913,-5.57597 -14.238913,-18.31739 0,-10.99351 7.482329,-20.1522 23.407832,-20.1522 3.6185,0 6.9968,0.31687 10.05821,0.79729 l -2.57588,12.98164 z" style="fill:#ed1c24;fill-opacity:1;fill-rule:nonzero;stroke:none"/>
      <path d="m 138.38098,338.45107 0,0 c -1.76836,0 -2.97453,0.0818 -4.26247,0.15844 l -1.77348,9.08203 c 0.80752,0.0767 1.60993,0.0767 2.41745,0.0767 5.30509,0 8.60672,-2.54522 8.60672,-6.13306 0,-2.14657 -1.77348,-3.18408 -4.98822,-3.18408 m -3.46007,20.22887 0,0 c -1.68659,0 -3.78205,0 -4.74289,0.0818 l -1.77348,9.79756 c 0.80752,0.0767 2.41745,0.15843 3.21986,0.15843 5.46864,0 8.28473,-3.10741 8.28473,-6.29149 0,-2.39189 -1.76836,-3.74627 -4.98822,-3.74627 m 15.20487,-6.60837 0,0.0767 c 3.53673,1.19595 5.55042,5.10066 5.55042,9.39891 0,10.43642 -10.13488,19.27824 -25.25797,19.27824 -3.94049,0 -10.05821,-0.15844 -19.06359,-0.15844 l 10.29332,-53.68469 c 5.46864,-0.32198 14.64267,-0.48042 20.4333,-0.48042 10.13487,0 17.29522,3.03075 17.29522,11.63237 0,6.60836 -3.62362,11.07016 -9.2507,13.93737" style="fill:#ed1c24;fill-opacity:1;fill-rule:nonzero;stroke:none"/>
      <path d="m 147.18447,307.64371 c 0,0 6.33238,3.15341 12.53188,-2.68832 6.19439,-5.84685 9.48068,-17.06012 26.89856,-12.93053 0,0 -2.24878,7.81965 -3.52139,15.98683 -1.27261,8.16719 -3.80761,24.40446 -21.93079,34.49845 l -2.83143,4.31869 c 0,0 12.61876,-2.79054 19.29869,-15.98172 6.67992,-13.19118 7.33922,-23.36695 8.66805,-29.43867 1.32372,-6.07173 3.64917,-9.05137 6.13306,-10.75841 0,0 -11.66303,-3.41918 -18.59339,-1.66103 -6.93035,1.75303 -9.91511,8.9747 -13.55916,12.58298 -3.64917,3.60829 -6.79748,7.22168 -13.09408,6.07173" style="fill:#ed1c24;fill-opacity:1;fill-rule:nonzero;stroke:none"/>
      <path d="m 182.0831,294.20362 c 0,0.92507 -0.75641,1.67637 -1.6917,1.67637 -0.93529,0 -1.6917,-0.7513 -1.6917,-1.67637 0,-0.92507 0.75641,-1.67637 1.6917,-1.67637 0.93529,0 1.6917,0.7513 1.6917,1.67637" style="fill:#ed1c24;fill-opacity:1;fill-rule:nonzero;stroke:none"/>
      <path d="m 133.84865,309.99471 c 0,0 -13.14007,12.83342 -24.59867,9.864 -11.453482,-2.96431 -3.58784,-11.55059 -3.58784,-11.55059 0,0 -7.170562,2.05968 -8.903151,-0.68997 -1.737699,-2.74454 4.972891,-6.41415 4.972891,-6.41415 0,0 -10.691966,3.03586 -12.378557,1.03239 -1.681479,-2.00346 13.186077,-7.55899 13.186077,-7.55899 0,0 -15.496195,0.80241 -16.308825,-3.43451 -0.807519,-4.23692 12.143453,-4.69179 12.143453,-4.69179 0,0 -11.596588,-2.34589 -11.877687,-5.70885 -0.281098,-3.36296 19.707559,-1.73259 35.663729,2.83654 19.24246,5.50441 45.96726,24.42489 45.96726,24.42489 0,0 -10.99862,-12.16389 -35.40307,-23.49982 -24.39935,-11.34105 -50.771492,-9.05137 -52.391641,-5.49931 -1.620149,3.55206 8.330736,6.75658 8.330736,6.75658 0,0 -8.678276,2.63722 -7.518106,6.18417 1.155059,3.54695 11.565923,4.46691 11.565923,4.46691 0,0 -11.254159,4.53846 -8.443175,8.24385 2.080129,2.74965 8.836713,0.69508 8.836713,0.69508 0,0 -3.020531,7.47722 7.77365,5.91329 0,0 -4.932001,10.33931 8.48406,11.60169 13.41606,1.25728 24.48623,-12.97141 24.48623,-12.97141" style="fill:#ed1c24;fill-opacity:1;fill-rule:nonzero;stroke:none"/>
    </g>
  </g>
</svg>