<?xml version="1.0" encoding="UTF-8" standalone="no"?>
<svg xmlns:dc="http://purl.org/dc/elements/1.1/" xmlns:cc="http://creativecommons.org/ns#" xmlns:rdf="http://www.w3.org/1999/02/22-rdf-syntax-ns#" xmlns="http://www.w3.org/2000/svg" width="200" height="190.21875">
  <title>Partido dos Trabalhadores (PT)</title>
  <metadata>
    <rdf:RDF>
      <cc:Work rdf:about="">
        <dc:format>image/svg+xml</dc:format>
        <dc:type rdf:resource="http://purl.org/dc/dcmitype/StillImage"/>
        <dc:title>Partido dos Trabalhadores (PT)</dc:title>
      </cc:Work>
    </rdf:RDF>
  </metadata>
  <g transform="translate(-38.38605,-32.97625)">
    <g transform="matrix(25,0,0,25,-1028.4077,-2053.11)">
      <path d="m 46.67175,83.44345 0.945,2.90625 3.055,0 -2.47125,1.795 0.94375,2.9075 -2.4725,-1.79625 -2.4725,1.79625 0.945,-2.9075 -2.4725,-1.795 3.05625,0 0.94375,-2.90625 z" style="fill:#c4122d;fill-opacity:1;fill-rule:nonzero;stroke:none"/>
      <path d="m 45.5625,87.15625 0,1.5625 0.34375,0 0,-0.46875 0.25,0 c 0.179274,-2.78e-4 0.319205,-0.06408 0.4375,-0.15625 0.118294,-0.09217 0.183089,-0.225535 0.1875,-0.40625 -0.0016,-0.161824 -0.05188,-0.277495 -0.15625,-0.375 -0.104373,-0.0975 -0.249873,-0.153696 -0.4375,-0.15625 l -0.625,0 z m 1.3125,0 0,0.3125 0.5,0 0,1.25 0.3125,0 0,-1.25 0.5,0 0,-0.3125 -1.3125,0 z m -0.96875,0.3125 0.25,0 c 0.08664,2.33e-4 0.169695,0.02245 0.21875,0.0625 0.04905,0.04005 0.06162,0.07917 0.0625,0.15625 -6.05e-4,0.06831 -0.0154,0.143691 -0.0625,0.1875 -0.04711,0.04381 -0.132385,0.06102 -0.21875,0.0625 l -0.25,0 0,-0.46875 z" style="fill:#ffffff;fill-opacity:1;fill-rule:nonzero;stroke:none"/>
    </g>
  </g>
</svg>