<?xml version="1.0" encoding="UTF-8" standalone="no"?>
<svg xmlns="http://www.w3.org/2000/svg" version="1.1" height="44.840012" width="200">
  <g transform="translate(-425.71429,-284.22791)">
    <g>
      <path d="m 554.9997,293.61413 -4.84306,-4.84307 c -3.60453,4.95415 -7.75335,9.48897 -12.36037,13.51005 -14.81246,-11.32178 -33.32108,-18.0532 -53.40147,-18.0532 -20.08039,0 -38.58901,6.73142 -53.40146,18.0532 l -5.27905,4.3682 5.27905,4.3682 c 14.81245,11.32177 33.32107,18.05041 53.40146,18.05041 20.08039,0 38.58901,-6.72864 53.40147,-18.05041 4.52649,3.94887 8.61143,8.39483 12.17153,13.249 l 4.84029,-4.84028 c -3.48512,-4.6348 -7.41733,-8.91691 -11.73277,-12.77692 4.39319,-3.93222 8.39205,-8.30042 11.92438,-13.03518 m -22.67132,13.03518 c -13.43785,9.83609 -30.00813,15.64832 -47.93358,15.64832 -17.92545,0 -34.49573,-5.81223 -47.93357,-15.64832 13.43784,-9.83609 30.00812,-15.64832 47.93357,-15.64832 17.92545,0 34.49573,5.81223 47.93358,15.64832" style="fill:#006f41;fill-opacity:1;fill-rule:nonzero;stroke:none"/>
      <path d="m 566.89854,322.77222 0,-0.26937 c 0,-1.75228 0.20827,-3.28518 0.62204,-4.6098 0.40544,-1.3274 1.04137,-2.47429 1.89113,-3.44902 0.80533,-0.89696 1.81615,-1.84669 3.02692,-2.85752 1.21076,-1.01082 2.6298,-2.07718 4.24323,-3.20464 0.50819,-0.35823 1.23576,-0.85809 2.17716,-1.49957 4.25157,-2.90473 6.37596,-5.22629 6.37596,-6.95913 0,-0.98583 -0.32213,-1.76894 -0.97472,-2.34378 -0.64981,-0.57484 -1.53845,-0.86642 -2.66591,-0.86642 -1.41626,0 -2.49651,0.47486 -3.23241,1.42459 -0.73035,0.94973 -1.12746,2.37711 -1.18855,4.27656 l -8.48092,0 c 0.15273,-4.06828 1.4246,-7.2396 3.81558,-9.50285 2.39932,-2.26046 5.67061,-3.38514 9.83054,-3.38514 3.79336,0 6.7814,0.86642 8.98077,2.59093 2.19938,1.73006 3.30184,4.06828 3.30184,7.01744 0,1.79949 -0.37489,3.37127 -1.12746,4.72643 -0.74145,1.35795 -2.02997,2.74367 -3.86279,4.16271 -0.69702,0.55817 -2.28823,1.56344 -4.77919,3.02691 -2.48263,1.45515 -4.5376,2.74089 -6.1538,3.86835 l 15.0957,0 -1.19688,7.85332 -25.69824,0 z" style="fill:#006f41;fill-opacity:1;fill-rule:nonzero;stroke:none"/>
      <path d="m 612.73465,296.66743 c -1.85502,0 -3.29628,1.25797 -4.32932,3.76837 -1.03304,2.51595 -1.54956,6.03995 -1.54956,10.57477 0,1.71617 0.31658,3.01858 0.93585,3.89889 0.62204,0.88308 1.53289,1.3274 2.74366,1.3274 0.87197,0 1.6773,-0.28326 2.4132,-0.84421 0.74423,-0.55817 1.30241,-1.31629 1.67175,-2.27435 0.49708,-1.22743 0.90252,-2.86585 1.22465,-4.90416 0.32213,-2.04664 0.48319,-4.10716 0.48319,-6.18435 0,-1.85225 -0.29158,-3.2102 -0.86642,-4.07384 -0.57483,-0.85809 -1.48568,-1.28852 -2.727,-1.28852 m -15.26232,12.15765 c 0,-2.79643 0.39711,-5.43734 1.20244,-7.91997 0.79699,-2.48263 1.94667,-4.65145 3.44624,-6.50648 1.29685,-1.58566 2.84363,-2.79643 4.63757,-3.62397 1.78282,-0.8331 3.76004,-1.24964 5.9372,-1.24964 4.17658,0 7.38678,1.24964 9.63892,3.74893 2.25491,2.49651 3.37959,6.05938 3.37959,10.68862 0,5.98441 -1.40238,10.74972 -4.20713,14.30426 -2.81032,3.55455 -6.54259,5.3346 -11.21626,5.3346 -4.0544,0 -7.2035,-1.28853 -9.44731,-3.87112 -2.24658,-2.5826 -3.37126,-6.21212 -3.37126,-10.90523" style="fill:#006f41;fill-opacity:1;fill-rule:nonzero;stroke:none"/>
      <path d="m 459.6163,314.76005 2.47985,-16.54529 6.80639,0 c 2.33823,0 4.06274,0.42211 5.17075,1.26353 1.10802,0.84143 1.66342,2.14106 1.66342,3.89334 0,2.02998 -0.60261,3.54621 -1.80226,4.5487 -1.20522,1.0025 -3.01859,1.50513 -5.44568,1.50513 l -2.89917,0 -0.74979,5.33459 -5.22351,0 z m 6.48149,-9.24459 1.83836,0 c 1.0136,0 1.72729,-0.1444 2.14106,-0.43321 0.41655,-0.2888 0.62482,-0.76367 0.62482,-1.43014 0,-0.53596 -0.1805,-0.92752 -0.54151,-1.17467 -0.35545,-0.2416 -0.93029,-0.36379 -1.71896,-0.36379 l -1.79393,0 -0.54984,3.40181 z" style="fill:#006f41;fill-opacity:1;fill-rule:nonzero;stroke:none"/>
      <path d="m 476.0619,309.49155 5.13464,0 0,0.0444 c 0,0.60816 0.21106,1.0747 0.63316,1.40238 0.42488,0.32491 1.03026,0.48597 1.82448,0.48597 0.58594,0 1.03304,-0.11663 1.33851,-0.34156 0.30546,-0.23049 0.46098,-0.56096 0.46098,-0.99694 0,-0.53596 -0.69147,-1.09969 -2.06886,-1.68286 -0.33602,-0.14162 -0.59705,-0.25826 -0.78589,-0.33879 -1.93833,-0.85531 -3.25463,-1.66341 -3.94887,-2.42986 -0.69425,-0.77201 -1.0386,-1.7134 -1.0386,-2.83808 0,-1.57178 0.58317,-2.80198 1.74951,-3.68507 1.16078,-0.88585 2.79087,-1.3274 4.87916,-1.3274 2.09107,0 3.74338,0.46931 4.96526,1.40516 1.22187,0.93584 1.8939,2.25491 2.02164,3.95443 l -4.94304,0 c -0.075,-0.56095 -0.28602,-0.98028 -0.6387,-1.25242 -0.35268,-0.27215 -0.85531,-0.411 -1.50235,-0.411 -0.43877,0 -0.79422,0.10831 -1.0747,0.32769 -0.28047,0.2166 -0.4221,0.48597 -0.4221,0.8081 0,0.48875 0.8331,1.0747 2.49096,1.76339 0.66092,0.2777 1.19133,0.50263 1.58566,0.67481 1.33295,0.58316 2.31601,1.2663 2.94361,2.04664 0.62759,0.78311 0.94417,1.71062 0.94417,2.78254 0,1.68007 -0.62204,2.98248 -1.86336,3.91277 -1.24686,0.93307 -2.99637,1.40238 -5.25128,1.40238 -2.341,0 -4.16826,-0.50263 -5.47622,-1.50513 -1.30518,-1.00249 -1.95777,-2.40209 -1.95777,-4.20158" style="fill:#006f41;fill-opacity:1;fill-rule:nonzero;stroke:none"/>
      <path d="m 504.11196,308.4599 5.08744,0 c -0.36656,2.1244 -1.27186,3.78781 -2.71867,4.9847 -1.44403,1.19965 -3.25185,1.79948 -5.42623,1.79948 -2.50762,0 -4.48206,-0.71368 -5.92053,-2.1355 -1.43848,-1.42459 -2.15495,-3.37682 -2.15495,-5.85389 0,-1.2302 0.2055,-2.41598 0.61372,-3.55732 0.40821,-1.13856 0.99416,-2.15494 1.75783,-3.03802 0.82199,-0.94973 1.80226,-1.67175 2.93528,-2.16328 1.13578,-0.48875 2.39654,-0.7359 3.78225,-0.7359 2.27713,0 4.04885,0.57484 5.32071,1.73006 1.27464,1.15523 1.9911,2.83531 2.14939,5.03468 l -4.94304,-0.0111 c -0.025,-0.84698 -0.25826,-1.50235 -0.70258,-1.97444 -0.44432,-0.47208 -1.06081,-0.7109 -1.84669,-0.7109 -1.1469,0 -2.07441,0.52762 -2.78255,1.5801 -0.70813,1.05248 -1.0608,2.43542 -1.0608,4.14882 0,1.16911 0.22771,2.05219 0.67758,2.64647 0.45265,0.59427 1.12468,0.89419 2.00776,0.89419 0.75257,0 1.41349,-0.23049 1.96889,-0.68592 0.56095,-0.4582 0.9775,-1.10801 1.25519,-1.95222" style="fill:#006f41;fill-opacity:1;fill-rule:nonzero;stroke:none"/>
    </g>
  </g>
</svg>