<!-- Created with Inkscape (http://www.inkscape.org/) -->
<svg xmlns:rdf="http://www.w3.org/1999/02/22-rdf-syntax-ns#" xmlns="http://www.w3.org/2000/svg" height="118.62" width="250" version="1.1" xmlns:cc="http://creativecommons.org/ns#" xmlns:dc="http://purl.org/dc/elements/1.1/">
	<metadata>
		<rdf:RDF>
			<cc:Work rdf:about="">
				<dc:format>image/svg+xml</dc:format>
				<dc:type rdf:resource="http://purl.org/dc/dcmitype/StillImage"/>
				<dc:title/>
			</cc:Work>
		</rdf:RDF>
	</metadata>
	<g fill-rule="nonzero" transform="translate(-62.061,-176.99)">
		<path d="m108.43,231.82c0.64-7.33-0.77-12.46-7.7-12.46-3.595,0-6.082,0.12-8.476,0.49l-2.923,33.48c2.453,0.24,5.397,0.6,8.373,0.6,6.936,0,9.256-5.37,9.896-12.58l0.83-9.53zm-12.419,41.41c-1.978,0-5.787-0.36-8.36-0.73l-1.793,20.53c-0.118,1.34-1.341,2.56-2.704,2.56h-18.586c-1.358,0-2.616-1.22-2.499-2.56l7.538-86.13c0.182-2.07,1.011-3.05,4.803-3.9,6.556-1.35,16.872-3.07,28.02-3.07,20.32,0,31.59,11.25,29.79,31.89l-0.84,9.53c-1.7,19.43-13.44,31.88-35.369,31.88" fill="#254890"/>
		<path d="m156.45,273.23c-8.8,0-17.11-1.33-22.67-2.92-1.44-0.37-2.24-1.23-2.11-2.7l1.1-12.57c0.13-1.47,1.09-2.57,2.83-2.57h0.49c7.23,0.97,17.05,1.95,21.14,1.95,4.7,0,5.93-1.22,6.13-3.54,0.12-1.35-0.53-2.45-3.36-4.03l-14.41-8.07c-7.44-4.15-10.86-10.38-10.08-19.3,1.09-12.46,10.5-19.55,28.96-19.55,9.42,0,16.72,1.47,22.54,3.07,1.45,0.36,2.37,1.21,2.23,2.68l-1.12,12.95c-0.13,1.46-0.97,2.44-2.33,2.44h-0.36c-3.55-0.49-15.57-1.95-21.14-1.95-3.22,0-4.65,0.73-4.82,2.69-0.1,0.97,0.7,1.84,2.48,2.81l13.81,7.69c9.7,5.38,11.95,12.22,11.35,19.05-1.09,12.35-10.59,21.87-30.66,21.87" fill="#70c846"/>
		<path d="m233.21,219.85c-2.46-0.25-5.41-0.49-8.38-0.49-6.94,0-9.39,5.26-10.02,12.46l-0.83,9.53c-0.64,7.32,0.89,12.58,7.82,12.58,3.6,0,6.09-0.24,8.48-0.6l2.93-33.48zm14.92,50.33c-6.56,1.34-16.87,3.05-28.02,3.05-20.31,0-31.59-11.23-29.79-31.88l0.84-9.53c1.7-19.42,13.44-31.89,35.37-31.89,1.98,0,5.78,0.5,8.34,0.86l1.81-20.64c0.12-1.35,1.33-2.45,2.7-2.45h18.45c1.36,0,2.63,1.1,2.51,2.45l-7.53,86.12c-0.18,2.07-0.89,3.05-4.68,3.91" fill="#f9af1e"/>
		<path d="m250.74,292.33c0,0.54-0.12,0.98-0.36,1.29-0.23,0.32-0.58,0.49-1.05,0.49-0.45,0-0.8-0.17-1.04-0.49-0.23-0.31-0.35-0.75-0.35-1.29v-1.06c0-0.54,0.12-0.97,0.35-1.29,0.24-0.32,0.59-0.48,1.04-0.48,0.47,0,0.82,0.16,1.05,0.48,0.24,0.32,0.36,0.75,0.36,1.29v1.06zm1.52-2.36c-0.13-0.4-0.33-0.75-0.59-1.03-0.27-0.29-0.59-0.52-0.97-0.68-0.39-0.17-0.85-0.25-1.37-0.25-0.51,0-0.96,0.1-1.35,0.25-0.39,0.16-0.71,0.39-0.98,0.68-0.25,0.28-0.45,0.63-0.58,1.03-0.14,0.39-0.22,0.83-0.22,1.3v1.06c0,0.47,0.1,0.91,0.22,1.31,0.13,0.39,0.33,0.73,0.58,1.02,0.27,0.29,0.59,0.52,0.98,0.68,0.39,0.17,0.84,0.25,1.35,0.25,0.52,0,0.98-0.1,1.37-0.25,0.38-0.16,0.7-0.39,0.97-0.68,0.26-0.29,0.46-0.63,0.59-1.02,0.14-0.4,0.21-0.84,0.21-1.31v-1.06c0-0.47-0.1-0.91-0.21-1.3m-7.18-1.79c-0.15-0.1-0.36-0.1-0.65-0.12-0.3-0.1-0.64-0.1-1.04-0.1-0.43,0-0.82,0.1-1.19,0.2-0.35,0.13-0.67,0.33-0.94,0.59-0.26,0.27-0.47,0.6-0.62,1-0.16,0.39-0.23,0.86-0.23,1.4v1.21c0,0.53,0.1,0.99,0.23,1.39,0.15,0.4,0.36,0.74,0.62,1,0.27,0.26,0.59,0.47,0.94,0.6,0.37,0.13,0.76,0.19,1.19,0.19,0.4,0,0.74,0,1.04-0.1,0.29-0.1,0.5-0.1,0.65-0.11,0.11,0,0.19-0.1,0.23-0.11,0.1-0.1,0.1-0.13,0.1-0.23v-0.86c0-0.1,0-0.11-0.1-0.15-0.1-0.1-0.1-0.1-0.17-0.1h-0.1c-0.13,0-0.25,0.1-0.36,0.1h-0.36-0.41-0.55c-0.16,0-0.31,0-0.47-0.1-0.14-0.1-0.28-0.14-0.39-0.26-0.12-0.13-0.21-0.31-0.29-0.53-0.1-0.22-0.12-0.5-0.12-0.85v-1.21c0-0.34,0.1-0.63,0.12-0.84,0.1-0.23,0.17-0.4,0.29-0.53,0.11-0.12,0.25-0.22,0.39-0.27,0.16-0.1,0.31-0.1,0.47-0.1h0.55,0.41,0.36c0.11,0,0.23,0,0.36,0.1h0.1c0.1,0,0.12,0,0.17-0.1,0.1-0.1,0.1-0.1,0.1-0.15v-0.85c0-0.11,0-0.18-0.1-0.23-0.1-0.1-0.12-0.1-0.23-0.11m-6.18,0-1.21,0c-0.1,0-0.12,0.1-0.18,0.1-0.1,0.1-0.1,0.11-0.1,0.18v6.85c0,0.1,0,0.14,0.1,0.19,0.1,0.1,0.11,0.1,0.18,0.1h1.21c0.1,0,0.13,0,0.18-0.1,0.1-0.1,0.1-0.12,0.1-0.19v-6.85c0-0.1,0-0.12-0.1-0.18-0.1-0.1-0.12-0.1-0.18-0.1m0.1-2.66-1.27,0c-0.1,0-0.13,0-0.19,0.1-0.1,0.1-0.1,0.12-0.1,0.18v1.16c0,0.1,0,0.13,0.1,0.18,0.1,0.1,0.13,0.1,0.19,0.1h1.27c0.1,0,0.13,0,0.19-0.1,0.1-0.1,0.1-0.11,0.1-0.18v-1.16c0-0.1,0-0.12-0.1-0.18-0.1-0.1-0.12-0.1-0.19-0.1m-3.15,8.8-0.7,0h-0.28c-0.1,0-0.11-0.1-0.15-0.1-0.1-0.1-0.1-0.13-0.1-0.23v-0.39-4.11h1.18c0.1,0,0.13,0,0.18-0.1,0.1-0.1,0.1-0.12,0.1-0.19v-0.77c0-0.1,0-0.13-0.1-0.19-0.1-0.1-0.11-0.1-0.18-0.1h-1.18v-1.35c0-0.12-0.1-0.19-0.21-0.19h-0.1l-1.21,0.21c-0.1,0-0.13,0.1-0.18,0.1-0.1,0.1-0.1,0.1-0.1,0.17v1.07h-1.23c-0.1,0-0.13,0.1-0.19,0.1-0.1,0.1-0.1,0.12-0.1,0.19v0.59c0,0.1,0,0.13,0.1,0.18,0.1,0.1,0.12,0.1,0.19,0.1l1.23,0.19v4.11c0,0.45,0.1,0.8,0.12,1.07,0.1,0.27,0.19,0.49,0.36,0.63,0.17,0.16,0.38,0.25,0.64,0.31,0.27,0.1,0.58,0.1,0.95,0.1h0.44c0.14,0,0.29-0.1,0.45-0.1,0.17,0,0.25-0.11,0.25-0.23v-0.84c0-0.12-0.1-0.19-0.28-0.19m-6.87-0.44c-0.2,0.11-0.42,0.2-0.64,0.27-0.24,0.1-0.47,0.1-0.71,0.1-0.33,0-0.57-0.1-0.72-0.16-0.16-0.11-0.23-0.33-0.23-0.66v-0.1c0-0.19,0-0.35,0.1-0.49s0.1-0.25,0.22-0.34c0.11-0.1,0.26-0.16,0.44-0.22,0.2-0.1,0.44-0.1,0.74-0.1h0.83v1.61zm-1.16-5.84c-0.45,0-0.86,0-1.24,0.1-0.37,0.1-0.69,0.1-0.95,0.14-0.16,0.1-0.25,0.12-0.25,0.28v0.82c0,0.1,0,0.16,0.1,0.19,0.1,0,0.1,0.1,0.17,0.1h0.1c0.22,0,0.51-0.1,0.91-0.1s0.8-0.1,1.22-0.1c0.39,0,0.69,0.1,0.87,0.21,0.19,0.14,0.29,0.43,0.29,0.86v0.58h-0.84c-0.56,0-1.05,0.1-1.45,0.15-0.41,0.1-0.74,0.24-1,0.43s-0.45,0.43-0.56,0.7c-0.12,0.28-0.17,0.61-0.17,0.99v0.1c0,0.45,0.1,0.82,0.19,1.09,0.14,0.28,0.31,0.51,0.53,0.67,0.21,0.16,0.46,0.28,0.72,0.34,0.27,0.1,0.55,0.1,0.82,0.1,0.31,0,0.62-0.1,0.92-0.15,0.31-0.1,0.61-0.24,0.93-0.43v0.21c0,0.1,0,0.14,0.1,0.19,0.1,0.1,0.11,0.1,0.19,0.1h1.11c0.1,0,0.12,0,0.18-0.1,0.1-0.1,0.1-0.11,0.1-0.19v-4.71c0-0.84-0.26-1.47-0.74-1.88-0.49-0.41-1.21-0.62-2.14-0.62m-0.74-0.74,1.13,0c0.1,0,0.14,0,0.18-0.1,0.1-0.1,0.1-0.1,0.14-0.14l1.54-1.62c0.1-0.1,0.1-0.1,0.1-0.1,0-0.1-0.1-0.1-0.15-0.1h-1.37c-0.1,0-0.15,0-0.19,0.1-0.1,0.1-0.1,0.1-0.16,0.14l-1.25,1.6c-0.1,0-0.1,0.1-0.1,0.12,0,0.1,0.1,0.1,0.12,0.1m-2.9,0.76c-0.27,0-0.56,0.1-0.89,0.12-0.34,0.1-0.67,0.25-0.99,0.51v-0.28c0-0.1,0-0.13-0.1-0.19-0.1-0.1-0.11-0.1-0.18-0.1h-1.15c-0.1,0-0.12,0.1-0.18,0.1-0.1,0.1-0.1,0.12-0.1,0.19v6.84c0,0.1,0,0.14,0.1,0.2,0.1,0.1,0.11,0.1,0.18,0.1h1.21c0.1,0,0.13,0,0.18-0.1,0.1-0.1,0.1-0.12,0.1-0.2v-5.26c0.27-0.15,0.55-0.26,0.84-0.35,0.28-0.1,0.6-0.11,0.96-0.11,0.1,0,0.13-0.1,0.18-0.1,0.1-0.1,0.1-0.11,0.1-0.18v-0.94c0-0.1,0-0.14-0.1-0.19-0.1-0.1-0.11-0.1-0.18-0.1m-5.06,0.16c-0.15-0.1-0.37-0.1-0.66-0.12-0.28-0.1-0.63-0.1-1.03-0.1-0.42,0-0.83,0.1-1.19,0.19-0.36,0.14-0.67,0.34-0.94,0.59-0.26,0.28-0.47,0.61-0.63,1-0.15,0.39-0.22,0.86-0.22,1.4v1.22c0,0.52,0.1,0.99,0.22,1.38,0.16,0.41,0.37,0.74,0.63,1,0.27,0.27,0.58,0.47,0.94,0.6s0.77,0.2,1.19,0.2c0.4,0,0.75,0,1.03-0.1,0.29-0.1,0.51-0.1,0.66-0.11,0.11,0,0.19-0.1,0.22-0.11,0.1-0.1,0.1-0.13,0.1-0.23v-0.85c0-0.1,0-0.12-0.1-0.15-0.1-0.1-0.1-0.1-0.17-0.1h-0.1c-0.13,0-0.25,0.1-0.37,0.1h-0.35-0.41-0.56c-0.15,0-0.3,0-0.46-0.1-0.14-0.1-0.28-0.15-0.4-0.27-0.11-0.12-0.21-0.3-0.28-0.53-0.1-0.22-0.11-0.5-0.11-0.84v-1.21c0-0.35,0.1-0.63,0.11-0.85,0.1-0.23,0.17-0.4,0.28-0.53,0.12-0.12,0.26-0.22,0.4-0.26,0.16-0.1,0.31-0.1,0.46-0.1h0.56,0.41,0.35c0.12,0,0.24,0,0.37,0.1h0.1c0.1,0,0.13,0,0.17-0.1,0.1-0.1,0.1-0.1,0.1-0.14v-0.86c0-0.1,0-0.18-0.1-0.23-0.1-0.1-0.11-0.1-0.22-0.11m-7.64,4.25c0,0.55-0.11,0.98-0.35,1.3-0.23,0.31-0.59,0.48-1.05,0.48s-0.81-0.17-1.04-0.48c-0.24-0.32-0.35-0.75-0.35-1.3v-1.06c0-0.54,0.11-0.97,0.35-1.28,0.23-0.33,0.58-0.49,1.04-0.49s0.82,0.16,1.05,0.49c0.24,0.31,0.35,0.74,0.35,1.28v1.06zm0.94-3.39c-0.27-0.29-0.59-0.52-0.98-0.68-0.39-0.17-0.84-0.25-1.36-0.25-0.51,0-0.96,0.1-1.35,0.25-0.39,0.16-0.71,0.39-0.98,0.68-0.25,0.29-0.46,0.63-0.59,1.03-0.13,0.39-0.21,0.83-0.21,1.3v1.06c0,0.47,0.1,0.91,0.21,1.31,0.13,0.39,0.34,0.73,0.59,1.02,0.27,0.29,0.59,0.52,0.98,0.68,0.39,0.17,0.84,0.25,1.35,0.25,0.52,0,0.97-0.1,1.36-0.25,0.39-0.16,0.71-0.39,0.98-0.68,0.25-0.29,0.46-0.63,0.59-1.02,0.13-0.4,0.2-0.84,0.2-1.31v-1.06c0-0.47-0.1-0.91-0.2-1.3-0.13-0.4-0.34-0.74-0.59-1.03m-7.17-0.13c-0.16-0.24-0.37-0.44-0.65-0.58-0.3-0.14-0.66-0.22-1.11-0.22s-0.84,0.1-1.17,0.15c-0.32,0.11-0.65,0.26-0.98,0.44-0.15-0.18-0.35-0.33-0.6-0.44-0.25-0.1-0.56-0.15-0.93-0.15-0.4,0-0.73,0.1-1.03,0.19-0.29,0.12-0.56,0.27-0.85,0.45v-0.28c0-0.1,0-0.14-0.1-0.19-0.1-0.1-0.12-0.1-0.19-0.1h-1.13c-0.1,0-0.14,0.1-0.19,0.1-0.1,0.1-0.1,0.11-0.1,0.18v6.85c0,0.1,0,0.14,0.1,0.19,0.1,0.1,0.11,0.1,0.19,0.1h1.2c0.1,0,0.13,0,0.18-0.1,0.1-0.1,0.1-0.12,0.1-0.19v-5.27c0.53-0.3,0.93-0.44,1.2-0.44,0.19,0,0.34,0,0.46,0.1s0.2,0.1,0.27,0.2c0.1,0.1,0.11,0.22,0.14,0.39,0,0.16,0.1,0.36,0.1,0.61v4.45c0,0.1,0,0.14,0.1,0.19,0.1,0.1,0.12,0.1,0.19,0.1h1.2c0.1,0,0.12,0,0.18-0.1,0.1-0.1,0.1-0.12,0.1-0.19v-4.45-0.47c0-0.16,0-0.32-0.1-0.47,0.24-0.12,0.47-0.2,0.7-0.25,0.23-0.1,0.4-0.1,0.52-0.1,0.19,0,0.34,0,0.46,0.1s0.22,0.11,0.29,0.2c0.1,0.1,0.12,0.23,0.14,0.39,0.1,0.16,0.1,0.37,0.1,0.62v4.44c0,0.1,0.1,0.14,0.1,0.2,0.1,0.1,0.11,0.1,0.19,0.1h1.2c0.1,0,0.13,0,0.18-0.1,0.1-0.1,0.1-0.12,0.1-0.2v-4.44c0-0.39-0.1-0.75-0.11-1.08-0.1-0.33-0.16-0.62-0.31-0.87m-12.07,2.35-2.8,0,0-0.1c0-0.53,0.14-0.93,0.4-1.2,0.27-0.28,0.6-0.42,1.02-0.42,0.4,0,0.73,0.15,0.99,0.43,0.26,0.27,0.39,0.67,0.39,1.19v0.1zm0.93-2.23c-0.27-0.29-0.59-0.52-0.97-0.68-0.39-0.16-0.84-0.24-1.34-0.24s-0.95,0.1-1.34,0.23c-0.39,0.16-0.72,0.38-0.99,0.67-0.26,0.28-0.46,0.63-0.61,1.05-0.14,0.4-0.21,0.86-0.21,1.37v0.96c0,0.65,0.11,1.19,0.31,1.61,0.21,0.42,0.47,0.76,0.78,1.01s0.65,0.43,1.02,0.52c0.37,0.1,0.72,0.15,1.05,0.15h0.78c0.23,0,0.43,0,0.62-0.1,0.18,0,0.38-0.1,0.55-0.1,0.19,0,0.38-0.1,0.59-0.1,0.12,0,0.2-0.1,0.23-0.11,0.1-0.1,0.1-0.13,0.1-0.23v-0.87c0-0.1,0-0.12-0.1-0.15-0.1-0.1-0.1-0.1-0.17-0.1h-0.1c-0.27,0-0.63,0.1-1.06,0.1-0.42,0-0.87,0.1-1.35,0.1-0.31,0-0.57-0.1-0.78-0.16-0.21-0.1-0.37-0.23-0.48-0.39-0.12-0.17-0.2-0.34-0.25-0.54-0.1-0.19-0.1-0.39-0.1-0.58v-0.1h4.28c0.17,0,0.26-0.11,0.26-0.33v-0.73c0-0.5-0.1-0.94-0.2-1.35-0.14-0.4-0.34-0.75-0.6-1.05m-8.44,2.68c0,0.49-0.1,0.9-0.17,1.21-0.12,0.32-0.28,0.57-0.48,0.76-0.21,0.19-0.46,0.33-0.74,0.39-0.28,0.1-0.59,0.12-0.91,0.12h-0.63c-0.18,0-0.33,0-0.47-0.1v-6.81h0.47,0.63c0.32,0,0.63,0.1,0.91,0.11,0.28,0.1,0.53,0.21,0.74,0.39,0.2,0.19,0.36,0.44,0.48,0.77,0.12,0.31,0.17,0.72,0.17,1.21v1.93zm-2.3-5.94h-0.74c-0.25,0-0.5,0-0.74,0.1-0.25,0-0.47,0.1-0.66,0.1s-0.34,0.1-0.45,0.1c-0.1,0-0.19,0.1-0.24,0.12-0.1,0.1-0.1,0.16-0.1,0.29v8.81c0,0.13,0.1,0.23,0.1,0.29,0.1,0.1,0.15,0.1,0.24,0.11,0.11,0,0.26,0.1,0.45,0.1s0.41,0.1,0.66,0.1c0.24,0,0.49,0.1,0.74,0.1h0.74c1.32,0,2.34-0.34,3.06-1.03,0.7-0.68,1.06-1.68,1.06-2.98v-1.92c0-1.31-0.36-2.29-1.06-2.98-0.72-0.68-1.74-1.03-3.06-1.03m-8.82-0.17-1.22,0c-0.1,0-0.13,0-0.18,0.1-0.1,0.1-0.1,0.12-0.1,0.19v9.42c0,0.1,0,0.14,0.1,0.2,0.1,0.1,0.12,0.1,0.18,0.1h1.22c0.1,0,0.13,0,0.18-0.1,0.1-0.1,0.1-0.12,0.1-0.2v-9.42c0-0.1,0-0.13-0.1-0.19-0.1-0.1-0.11-0.1-0.18-0.1m-4.59,8.33c-0.19,0.11-0.4,0.19-0.64,0.27-0.23,0.1-0.46,0.1-0.7,0.1-0.34,0-0.57-0.1-0.73-0.16-0.14-0.12-0.21-0.33-0.21-0.65v-0.1c0-0.18,0-0.35,0.1-0.49s0.11-0.25,0.23-0.34c0.11-0.1,0.25-0.17,0.45-0.21,0.19-0.1,0.43-0.1,0.73-0.1h0.82v1.62zm-1.15-5.83c-0.45,0-0.87,0-1.23,0.1-0.37,0.1-0.69,0.1-0.96,0.14-0.16,0.1-0.24,0.12-0.24,0.27v0.84c0,0.1,0,0.16,0.1,0.18,0.1,0,0.11,0.1,0.18,0.1h0.1c0.22,0,0.53-0.1,0.91-0.1,0.4,0,0.8-0.1,1.22-0.1,0.4,0,0.68,0.1,0.87,0.21,0.19,0.14,0.28,0.42,0.28,0.87v0.57h-0.81c-0.58,0-1.07,0.1-1.46,0.15-0.42,0.1-0.75,0.24-1,0.43-0.26,0.19-0.45,0.43-0.57,0.71-0.11,0.27-0.17,0.6-0.17,0.98v0.1c0,0.45,0.1,0.81,0.2,1.09,0.14,0.28,0.31,0.5,0.52,0.67,0.21,0.16,0.45,0.27,0.73,0.34,0.27,0.1,0.54,0.1,0.81,0.1,0.32,0,0.63-0.1,0.94-0.15,0.29-0.1,0.61-0.24,0.9-0.43v0.21c0,0.1,0.1,0.13,0.1,0.19,0.1,0.1,0.11,0.1,0.18,0.1h1.11c0.1,0,0.13,0,0.19-0.1,0.1-0.1,0.1-0.11,0.1-0.19v-4.71c0-0.85-0.25-1.48-0.75-1.88-0.49-0.41-1.2-0.62-2.14-0.62m-4.39-2.57-1.27,0c-0.1,0-0.14,0-0.19,0.1-0.1,0.1-0.1,0.12-0.1,0.19v1.15c0,0.1,0,0.13,0.1,0.18,0.1,0.1,0.11,0.1,0.19,0.1h1.27c0.1,0,0.13,0,0.18-0.1,0.1-0.1,0.1-0.11,0.1-0.18v-1.15c0-0.1,0-0.13-0.1-0.19-0.1-0.1-0.12-0.1-0.18-0.1m-0.1,2.65-1.21,0c-0.1,0-0.12,0.1-0.18,0.1-0.1,0.1-0.1,0.11-0.1,0.19v6.84c0,0.1,0,0.14,0.1,0.19,0.1,0.1,0.11,0.1,0.18,0.1h1.21c0.1,0,0.13,0,0.18-0.1,0.1-0.1,0.1-0.11,0.1-0.19v-6.84c0-0.1,0-0.13-0.1-0.19-0.1-0.1-0.11-0.1-0.18-0.1m-2.96,0.1c-0.14-0.1-0.37-0.1-0.65-0.12-0.28-0.1-0.63-0.1-1.03-0.1-0.43,0-0.83,0.1-1.19,0.19-0.36,0.14-0.68,0.34-0.94,0.59-0.27,0.28-0.48,0.61-0.62,1-0.17,0.39-0.24,0.86-0.24,1.4v1.22c0,0.52,0.1,0.99,0.24,1.38,0.14,0.41,0.35,0.74,0.62,1,0.26,0.27,0.58,0.47,0.94,0.6s0.76,0.2,1.19,0.2c0.4,0,0.75,0,1.03-0.1s0.51-0.1,0.65-0.11c0.12,0,0.19-0.1,0.24-0.11,0.1-0.1,0.1-0.13,0.1-0.23v-0.85c0-0.1,0-0.12-0.1-0.15-0.1-0.1-0.1-0.1-0.17-0.1h-0.1c-0.13,0-0.25,0.1-0.36,0.1h-0.36-0.42-0.54c-0.16,0-0.31,0-0.46-0.1s-0.28-0.15-0.4-0.27-0.21-0.3-0.29-0.53c-0.1-0.22-0.11-0.5-0.11-0.84v-1.21c0-0.35,0.1-0.63,0.11-0.85,0.1-0.23,0.17-0.4,0.29-0.53,0.12-0.12,0.25-0.22,0.4-0.26,0.15-0.1,0.3-0.1,0.46-0.1h0.54,0.42,0.36c0.11,0,0.23,0,0.36,0.1h0.1c0.1,0,0.13,0,0.17-0.1,0.1-0.1,0.1-0.1,0.1-0.14v-0.86c0-0.1,0-0.18-0.1-0.23-0.1-0.1-0.12-0.1-0.24-0.11m-7.44,4.25c0,0.55-0.12,0.98-0.35,1.3-0.24,0.31-0.59,0.48-1.05,0.48s-0.81-0.17-1.05-0.48c-0.23-0.32-0.35-0.75-0.35-1.3v-1.06c0-0.54,0.12-0.97,0.35-1.29,0.24-0.32,0.59-0.48,1.05-0.48s0.81,0.16,1.05,0.48c0.23,0.32,0.35,0.75,0.35,1.29v1.06zm0.94-3.39c-0.27-0.29-0.59-0.52-0.99-0.68-0.38-0.17-0.83-0.25-1.35-0.25s-0.97,0.1-1.36,0.25c-0.38,0.16-0.71,0.39-0.97,0.68s-0.46,0.63-0.6,1.02c-0.13,0.4-0.2,0.84-0.2,1.31v1.06c0,0.47,0.1,0.91,0.2,1.31,0.14,0.39,0.34,0.73,0.6,1.02s0.59,0.52,0.97,0.68c0.39,0.17,0.84,0.25,1.36,0.25s0.97-0.1,1.35-0.25c0.4-0.16,0.72-0.39,0.99-0.68,0.25-0.29,0.45-0.63,0.59-1.02,0.13-0.4,0.2-0.84,0.2-1.31v-1.06c0-0.47-0.1-0.91-0.2-1.31-0.14-0.39-0.34-0.73-0.59-1.02m-6.62,2.49c-0.13-0.22-0.32-0.43-0.55-0.64-0.24-0.2-0.54-0.4-0.89-0.61l-1.57-0.88c-0.22-0.11-0.39-0.21-0.53-0.31-0.13-0.1-0.25-0.2-0.33-0.28-0.1-0.1-0.14-0.18-0.17-0.27-0.1-0.1-0.1-0.19-0.1-0.3,0-0.29,0.1-0.52,0.31-0.69,0.22-0.16,0.56-0.24,1.06-0.24,0.42,0,0.85,0,1.28,0.1,0.43,0,0.86,0.1,1.3,0.11h0.1c0.1,0,0.12,0,0.16-0.1,0.1-0.1,0.1-0.1,0.1-0.17v-0.96c0-0.1,0-0.13-0.1-0.17-0.1-0.1-0.11-0.1-0.17-0.1-0.12,0-0.28-0.1-0.46-0.1-0.19-0.1-0.41-0.1-0.64-0.1-0.24,0-0.49-0.1-0.73-0.1h-0.69c-0.61,0-1.12,0.1-1.54,0.18-0.42,0.12-0.76,0.3-1.01,0.52s-0.45,0.49-0.55,0.79c-0.11,0.31-0.18,0.65-0.18,1,0,0.23,0,0.45,0.1,0.66,0.1,0.22,0.14,0.42,0.26,0.61,0.11,0.21,0.28,0.39,0.46,0.58,0.2,0.18,0.45,0.35,0.76,0.55l1.73,1.03c0.22,0.13,0.39,0.25,0.54,0.35,0.13,0.1,0.25,0.2,0.33,0.29,0.1,0.1,0.15,0.2,0.19,0.3,0.1,0.1,0.1,0.21,0.1,0.35,0,0.38-0.1,0.67-0.32,0.87-0.21,0.2-0.6,0.3-1.19,0.3h-0.5c-0.2,0-0.42,0-0.64-0.1-0.23,0-0.45-0.1-0.67-0.1-0.21,0-0.38-0.1-0.51-0.1-0.1,0-0.14,0-0.19,0.1-0.1,0.1-0.1,0.11-0.1,0.19v0.93c0,0.1,0,0.13,0.1,0.18,0.1,0.1,0.12,0.1,0.19,0.1,0.3,0.1,0.65,0.12,1.02,0.17,0.37,0.1,0.8,0.1,1.29,0.1,0.66,0,1.21-0.1,1.64-0.24,0.45-0.16,0.8-0.37,1.06-0.63,0.27-0.26,0.46-0.54,0.58-0.87s0.17-0.66,0.17-0.99c0-0.26-0.1-0.51-0.1-0.75-0.1-0.23-0.15-0.46-0.29-0.68m-11.94,0.91c0,0.54-0.12,0.97-0.35,1.3-0.25,0.31-0.59,0.47-1.06,0.47-0.46,0-0.8-0.16-1.04-0.47-0.24-0.33-0.36-0.76-0.36-1.3v-1.06c0-0.54,0.12-0.98,0.36-1.29,0.24-0.32,0.58-0.48,1.04-0.48,0.47,0,0.81,0.16,1.06,0.48,0.23,0.31,0.35,0.75,0.35,1.29v1.06zm0.93-3.39c-0.27-0.29-0.59-0.52-0.98-0.68-0.38-0.17-0.84-0.25-1.36-0.25-0.5,0-0.96,0.1-1.35,0.25-0.39,0.16-0.71,0.39-0.98,0.68-0.26,0.29-0.46,0.62-0.59,1.02-0.14,0.4-0.2,0.84-0.2,1.31v1.06c0,0.47,0.1,0.91,0.2,1.3,0.13,0.4,0.33,0.74,0.59,1.03,0.27,0.29,0.59,0.51,0.98,0.68,0.39,0.16,0.85,0.24,1.35,0.24,0.52,0,0.98-0.1,1.36-0.24,0.39-0.17,0.71-0.39,0.98-0.68,0.26-0.29,0.46-0.63,0.59-1.03,0.14-0.39,0.21-0.83,0.21-1.3v-1.06c0-0.47-0.1-0.91-0.21-1.31-0.13-0.4-0.33-0.73-0.59-1.02m-8.35,5.13c-0.12,0.1-0.3,0.1-0.54,0.1s-0.47,0.1-0.71,0.1c-0.29,0-0.51-0.1-0.7-0.14-0.18-0.1-0.33-0.23-0.44-0.39-0.1-0.17-0.17-0.37-0.21-0.59-0.1-0.23-0.1-0.47-0.1-0.74v-1.01c0-0.27,0-0.52,0.1-0.74s0.12-0.42,0.21-0.58c0.11-0.17,0.26-0.3,0.44-0.4,0.19-0.1,0.41-0.14,0.7-0.14h0.6c0.26,0,0.47,0.1,0.65,0.1v4.54zm1.47-8.55-1.21,0c-0.1,0-0.13,0-0.18,0.1-0.1,0.1-0.1,0.11-0.1,0.18v2.32c-0.24-0.1-0.47-0.1-0.69-0.1h-0.56c-1.06,0-1.84,0.29-2.37,0.88-0.51,0.58-0.76,1.39-0.76,2.41v1.01c0,1.03,0.25,1.83,0.76,2.42,0.53,0.58,1.31,0.86,2.37,0.86,0.41,0,0.86-0.1,1.32-0.1,0.46-0.1,0.9-0.15,1.31-0.26,0.15-0.1,0.24-0.1,0.28-0.13,0.1-0.1,0.1-0.12,0.1-0.22v-9.12c0-0.1-0.1-0.13-0.1-0.17-0.1-0.1-0.11-0.1-0.18-0.1m-7.39-0.1-1.27,0c-0.1,0-0.14,0-0.2,0.1-0.1,0.1-0.1,0.12-0.1,0.18v1.15c0,0.1,0,0.14,0.1,0.19,0.1,0.1,0.12,0.1,0.2,0.1h1.27c0.1,0,0.12,0,0.18-0.1,0.1-0.1,0.1-0.11,0.1-0.19v-1.15c0-0.1-0.1-0.13-0.1-0.18-0.1-0.1-0.12-0.1-0.18-0.1m-0.1,2.66-1.2,0c-0.1,0-0.14,0.1-0.18,0.1-0.1,0.1-0.1,0.11-0.1,0.18v6.85c0,0.1,0,0.14,0.1,0.19,0.1,0.1,0.11,0.1,0.18,0.1h1.2c0.1,0,0.13,0,0.18-0.1,0.1-0.1,0.1-0.12,0.1-0.19v-6.85c0-0.1,0-0.13-0.1-0.18-0.1-0.1-0.11-0.1-0.18-0.1m-2.73,6.14-0.7,0h-0.28c-0.1,0-0.12-0.1-0.15-0.1,0-0.1-0.1-0.13-0.1-0.23v-0.39-4.11h1.19c0.1,0,0.12,0,0.18-0.1,0.1-0.1,0.1-0.12,0.1-0.2v-0.76c0-0.1-0.1-0.13-0.1-0.19-0.1-0.1-0.12-0.1-0.18-0.1h-1.19v-1.35c0-0.13-0.1-0.19-0.2-0.19h-0.1l-1.2,0.21c-0.1,0-0.14,0.1-0.2,0.1-0.1,0.1-0.1,0.1-0.1,0.17v1.07h-1.24c-0.1,0-0.12,0.1-0.17,0.1-0.1,0.1-0.1,0.11-0.1,0.19v0.59c0,0.1,0,0.12,0.1,0.17,0.1,0.1,0.11,0.1,0.17,0.1l1.24,0.19v4.11c0,0.44,0.1,0.79,0.11,1.07,0.1,0.27,0.2,0.49,0.37,0.63,0.16,0.15,0.37,0.25,0.64,0.3,0.26,0.1,0.58,0.1,0.95,0.1h0.44c0.14,0,0.28-0.1,0.44-0.1,0.17,0,0.26-0.1,0.26-0.23v-0.83c0-0.13-0.1-0.19-0.28-0.19m-5.27-6.28c-0.26,0-0.56,0.1-0.89,0.12-0.33,0.1-0.66,0.26-0.97,0.51v-0.28c0-0.1,0-0.13-0.1-0.18-0.1-0.1-0.11-0.1-0.2-0.1h-1.13c-0.1,0-0.14,0.1-0.18,0.1-0.1,0.1-0.1,0.11-0.1,0.18v6.85c0,0.1,0.1,0.14,0.1,0.19,0.1,0.1,0.11,0.1,0.18,0.1h1.21c0.1,0,0.13,0,0.18-0.1,0.1-0.1,0.1-0.12,0.1-0.19v-5.27c0.29-0.14,0.57-0.26,0.85-0.35,0.29-0.1,0.61-0.11,0.96-0.11,0.1,0,0.14-0.1,0.19-0.1,0.1-0.1,0.1-0.11,0.1-0.18v-0.94c0-0.1-0.1-0.13-0.1-0.19-0.1-0.1-0.12-0.1-0.19-0.1m-6.56,5.83c-0.19,0.12-0.4,0.2-0.64,0.27-0.23,0.1-0.47,0.1-0.7,0.1-0.33,0-0.57-0.1-0.73-0.16-0.15-0.11-0.22-0.32-0.22-0.65v-0.1c0-0.18,0-0.35,0.1-0.48,0.1-0.14,0.11-0.26,0.22-0.35,0.11-0.1,0.25-0.16,0.44-0.21,0.2-0.1,0.44-0.1,0.74-0.1h0.83v1.61zm-1.15-5.83c-0.45,0-0.87,0-1.24,0.1s-0.69,0.1-0.95,0.14c-0.16,0.1-0.25,0.11-0.25,0.27v0.83c0,0.1,0,0.16,0.1,0.18,0.1,0,0.1,0.1,0.17,0.1h0.1c0.22,0,0.53-0.1,0.92-0.1s0.8-0.1,1.21-0.1c0.4,0,0.69,0.1,0.88,0.21,0.18,0.14,0.28,0.43,0.28,0.87v0.57h-0.83c-0.56,0-1.05,0.1-1.46,0.15-0.4,0.1-0.74,0.24-0.99,0.43-0.26,0.19-0.45,0.43-0.57,0.71s-0.18,0.61-0.18,0.98v0.1c0,0.45,0.1,0.81,0.21,1.09,0.14,0.29,0.32,0.5,0.53,0.67s0.45,0.28,0.72,0.34c0.28,0.1,0.55,0.1,0.81,0.1,0.32,0,0.62-0.1,0.93-0.15,0.31-0.1,0.61-0.23,0.92-0.43v0.22c0,0.1,0,0.12,0.1,0.18,0.1,0.1,0.11,0.1,0.18,0.1h1.11c0.1,0,0.14,0,0.19-0.1,0.1-0.1,0.1-0.11,0.1-0.18v-4.72c0-0.85-0.24-1.47-0.73-1.88-0.5-0.41-1.21-0.62-2.15-0.62m-5.09,0.78c0,0.52-0.16,0.91-0.45,1.18-0.31,0.26-0.81,0.39-1.51,0.39h-0.25-0.334-0.351-0.231v-3.12h0.231,0.324,0.341,0.27c0.65,0,1.14,0.12,1.47,0.35,0.32,0.22,0.49,0.63,0.49,1.17v0.12zm0.68-2.5c-0.35-0.23-0.74-0.4-1.2-0.5-0.45-0.1-0.93-0.14-1.44-0.14-0.479,0-0.948,0-1.391,0.1-0.443,0-0.84,0.1-1.184,0.11-0.126,0-0.232,0.1-0.305,0.12-0.08,0.1-0.112,0.15-0.112,0.28v9.01c0,0.1,0,0.13,0.08,0.18,0.07,0.1,0.113,0.1,0.186,0.1h1.303c0.07,0,0.132,0,0.178-0.1,0.07-0.1,0.08-0.11,0.08-0.18v-3.42c0.145,0,0.33,0,0.555,0.1h0.61c0.51,0,0.98-0.1,1.44-0.16,0.46-0.1,0.85-0.27,1.2-0.51,0.34-0.23,0.62-0.54,0.82-0.94,0.22-0.4,0.31-0.87,0.31-1.46v-0.12c0-0.58-0.1-1.05-0.3-1.44-0.21-0.39-0.48-0.7-0.83-0.94" fill="#171717"/>
		<path d="m312.06,199.93c0,12.68-10.28,22.96-22.95,22.96s-22.94-10.28-22.94-22.96c0-12.66,10.27-22.94,22.94-22.94s22.95,10.28,22.95,22.94" fill="#254890"/>
		<path d="m302.66,210.02c-1.52,1.36-3.69,2.03-6.53,2.03-1.03,0-2.1-0.1-3.22-0.24-1.13-0.16-2.16-0.39-3.09-0.69-0.16-0.1-0.32-0.11-0.44-0.2-0.12-0.1-0.18-0.27-0.18-0.5l0.1-2.52c0-0.18,0.1-0.31,0.18-0.42,0.11-0.11,0.25-0.17,0.42-0.17h0.1c0.51,0.1,1.04,0.12,1.59,0.17,0.54,0.1,1.08,0.1,1.6,0.11,0.53,0.1,1.01,0.1,1.47,0.1,0.45,0,0.83,0.1,1.12,0.1,0.78,0,1.4-0.1,1.88-0.25,0.48-0.16,0.86-0.39,1.15-0.69s0.49-0.67,0.61-1.1c0.11-0.44,0.17-0.92,0.19-1.49v-0.26c0-0.54,0-1-0.16-1.38-0.12-0.37-0.36-0.69-0.71-0.92-0.34-0.23-0.8-0.41-1.37-0.51-0.59-0.11-1.33-0.16-2.23-0.16h-4.99c-0.13,0-0.23-0.1-0.32-0.15-0.1-0.1-0.12-0.2-0.12-0.31v-0.1l1.42-12.02c0-0.17,0.1-0.32,0.23-0.43s0.27-0.18,0.44-0.18h12.51c0.17,0,0.32,0.1,0.44,0.18,0.13,0.11,0.19,0.26,0.18,0.43l-0.12,3.22c0,0.17-0.1,0.32-0.2,0.44-0.13,0.12-0.29,0.17-0.46,0.17h-8.74l-0.53,4.46h0.92c1.41,0,2.68,0.11,3.83,0.33,1.17,0.22,2.17,0.61,3,1.16,0.83,0.54,1.47,1.28,1.91,2.2,0.44,0.93,0.63,2.09,0.58,3.49v0.26c-0.1,2.55-0.89,4.5-2.41,5.86m-16.09,0c-1.52,1.35-3.69,2.03-6.52,2.03-1.03,0-2.11-0.1-3.23-0.24-1.12-0.16-2.14-0.39-3.08-0.69-0.18-0.1-0.32-0.11-0.45-0.2-0.12-0.1-0.18-0.27-0.17-0.5l0.1-2.53c0-0.17,0.1-0.31,0.18-0.41,0.11-0.12,0.25-0.17,0.42-0.17h0.1c0.51,0.1,1.04,0.12,1.59,0.17,0.54,0.1,1.08,0.1,1.6,0.11,0.53,0.1,1.02,0.1,1.47,0.1s0.83,0.1,1.13,0.1c0.78,0,1.4-0.1,1.87-0.24,0.49-0.17,0.86-0.39,1.16-0.69,0.29-0.31,0.49-0.68,0.6-1.1,0.11-0.43,0.18-0.93,0.2-1.49v-0.26c0-0.54-0.1-1-0.16-1.38-0.12-0.38-0.36-0.69-0.71-0.92-0.35-0.24-0.81-0.41-1.38-0.52-0.57-0.1-1.32-0.15-2.22-0.15h-5c-0.13,0-0.22-0.1-0.31-0.16-0.1-0.1-0.13-0.2-0.12-0.3v-0.1l1.42-12.02c0-0.17,0.1-0.31,0.23-0.43,0.12-0.11,0.26-0.17,0.44-0.17h12.5c0.18,0,0.33,0.1,0.44,0.17,0.12,0.12,0.19,0.26,0.19,0.43l-0.12,3.23c0,0.17-0.1,0.31-0.21,0.43-0.13,0.13-0.28,0.18-0.45,0.18h-8.74l-0.55,4.45h0.94c1.4,0,2.68,0.11,3.83,0.33,1.16,0.23,2.16,0.62,3,1.17,0.83,0.54,1.47,1.28,1.9,2.2,0.45,0.93,0.64,2.08,0.59,3.48v0.26c-0.1,2.56-0.89,4.51-2.42,5.86" fill="#FFF"/>
	</g>
</svg>