<?xml version="1.0" encoding="UTF-8" standalone="no"?>
<svg xmlns:ooo="http://xml.openoffice.org/svg/export" xmlns:dc="http://purl.org/dc/elements/1.1/" xmlns:cc="http://creativecommons.org/ns#" xmlns:rdf="http://www.w3.org/1999/02/22-rdf-syntax-ns#" xmlns:svg="http://www.w3.org/2000/svg" xmlns="http://www.w3.org/2000/svg" xmlns:sodipodi="http://sodipodi.sourceforge.net/DTD/sodipodi-0.dtd" xmlns:inkscape="http://www.inkscape.org/namespaces/inkscape" version="1.2" width="200" height="202.47586" viewBox="0 0 5644.4445 5714.3189" preserveAspectRatio="xMidYMid" clip-path="url(#presentation_clip_path)" xml:space="preserve" id="svg3096" inkscape:version="0.48.5 r10040" sodipodi:docname="mapa_PTB.svg" style="fill-rule:evenodd;stroke-width:28.22200012;stroke-linejoin:round"><metadata id="metadata3205"><rdf:RDF><cc:Work rdf:about=""><dc:format>image/svg+xml</dc:format><dc:type rdf:resource="http://purl.org/dc/dcmitype/StillImage"/></cc:Work></rdf:RDF></metadata><sodipodi:namedview pagecolor="#ffffff" bordercolor="#666666" borderopacity="1" objecttolerance="10" gridtolerance="10" guidetolerance="10" inkscape:pageopacity="0" inkscape:pageshadow="2" inkscape:window-width="1600" inkscape:window-height="838" id="namedview3203" showgrid="false" fit-margin-top="0" fit-margin-left="0" fit-margin-right="0" fit-margin-bottom="0" inkscape:zoom="1.2685914" inkscape:cx="174.66992" inkscape:cy="196.6751" inkscape:window-x="-8" inkscape:window-y="-8" inkscape:window-maximized="1" inkscape:current-layer="svg3096"/>
 <defs class="ClipPathGroup" id="defs3098">
  <clipPath id="presentation_clip_path" clipPathUnits="userSpaceOnUse">
   <rect x="0" y="0" width="21000" height="29700" id="rect3101"/>
  </clipPath>
 </defs>
 <defs class="TextShapeIndex" id="defs3103">
  <g ooo:slide="id1" ooo:id-list="id3 id4 id5 id6 id7" id="g3105"/>
 </defs>
 <defs class="EmbeddedBulletChars" id="defs3107">
  <g id="bullet-char-template(57356)" transform="scale(4.8828125e-4,-4.8828125e-4)">
   <path d="M 580,1141 1163,571 580,0 -4,571 580,1141 z" id="path3110" inkscape:connector-curvature="0"/>
  </g>
  <g id="bullet-char-template(57354)" transform="scale(4.8828125e-4,-4.8828125e-4)">
   <path d="m 8,1128 1129,0 L 1137,0 8,0 8,1128 z" id="path3113" inkscape:connector-curvature="0"/>
  </g>
  <g id="bullet-char-template(10146)" transform="scale(4.8828125e-4,-4.8828125e-4)">
   <path d="M 174,0 602,739 174,1481 1456,739 174,0 z m 1184,739 -1049,607 350,-607 699,0 z" id="path3116" inkscape:connector-curvature="0"/>
  </g>
  <g id="bullet-char-template(10132)" transform="scale(4.8828125e-4,-4.8828125e-4)">
   <path d="M 2015,739 1276,0 717,0 l 543,543 -1086,0 0,393 1086,0 -543,545 557,0 741,-742 z" id="path3119" inkscape:connector-curvature="0"/>
  </g>
  <g id="bullet-char-template(10007)" transform="scale(4.8828125e-4,-4.8828125e-4)">
   <path d="m 0,-2 c -7,16 -16,29 -25,39 l 381,530 c -94,256 -141,385 -141,387 0,25 13,38 40,38 9,0 21,-2 34,-5 21,4 42,12 65,25 l 27,-13 111,-251 280,301 64,-25 24,25 c 21,-10 41,-24 62,-43 C 886,937 835,863 770,784 769,783 710,716 594,584 L 774,223 c 0,-27 -21,-55 -63,-84 l 16,-20 C 717,90 699,76 672,76 641,76 570,178 457,381 L 164,-76 c -22,-34 -53,-51 -92,-51 -42,0 -63,17 -64,51 -7,9 -10,24 -10,44 0,9 1,19 2,30 z" id="path3122" inkscape:connector-curvature="0"/>
  </g>
  <g id="bullet-char-template(10004)" transform="scale(4.8828125e-4,-4.8828125e-4)">
   <path d="M 285,-33 C 182,-33 111,30 74,156 52,228 41,333 41,471 c 0,78 14,145 41,201 34,71 87,106 158,106 53,0 88,-31 106,-94 l 23,-176 c 8,-64 28,-97 59,-98 l 735,706 c 11,11 33,17 66,17 42,0 63,-15 63,-46 l 0,-122 c 0,-36 -10,-64 -30,-84 L 442,47 C 390,-6 338,-33 285,-33 z" id="path3125" inkscape:connector-curvature="0"/>
  </g>
  <g id="bullet-char-template(9679)" transform="scale(4.8828125e-4,-4.8828125e-4)">
   <path d="M 813,0 C 632,0 489,54 383,161 276,268 223,411 223,592 c 0,181 53,324 160,431 106,107 249,161 430,161 179,0 323,-54 432,-161 108,-107 162,-251 162,-431 0,-180 -54,-324 -162,-431 C 1136,54 992,0 813,0 z" id="path3128" inkscape:connector-curvature="0"/>
  </g>
  <g id="bullet-char-template(8226)" transform="scale(4.8828125e-4,-4.8828125e-4)">
   <path d="m 346,457 c -73,0 -137,26 -191,78 -54,51 -81,114 -81,188 0,73 27,136 81,188 54,52 118,78 191,78 73,0 134,-26 185,-79 51,-51 77,-114 77,-187 0,-75 -25,-137 -76,-188 -50,-52 -112,-78 -186,-78 z" id="path3131" inkscape:connector-curvature="0"/>
  </g>
  <g id="bullet-char-template(8211)" transform="scale(4.8828125e-4,-4.8828125e-4)">
   <path d="m -4,459 1139,0 0,147 -1139,0 0,-147 z" id="path3134" inkscape:connector-curvature="0"/>
  </g>
 </defs>
 <defs class="TextEmbeddedBitmaps" id="defs3136"/>
 <g id="g3138" transform="translate(-1617.0001,-18341.237)">
  <g id="id2" class="Master_Slide">
   <g id="bg-id2" class="Background"/>
   <g id="bo-id2" class="BackgroundObjects"/>
  </g>
 </g>
 <g class="SlideGroup" id="g3143" transform="matrix(0.32052496,0,0,0.32052496,-518.289,-1709.3596)">
  <g id="g3145">
   <g id="id1" class="Slide" clip-path="url(#presentation_clip_path)">
    <g class="Page" id="g3148">
     <g class="com.sun.star.drawing.PolyPolygonShape" id="g3150">
      <g id="id3">
       <path d="m 9003,16190 -21,65 -12,59 -9,45 3,35 -18,169 -9,44 -6,27 -5,33 -39,100 -15,36 -15,38 -20,36 -24,41 -21,45 -9,38 -8,36 2,32 0,131 74,94 36,110 -15,98 0,109 -6,30 -3,12 0,15 -6,8 -3,12 -5,21 -15,18 -9,20 -9,15 -3,18 -12,30 -6,23 -12,15 -6,9 0,133 169,54 27,6 32,2 33,-2 39,-6 168,17 169,-109 12,-9 18,-3 44,9 51,26 62,51 171,98 54,145 0,151 38,94 0,131 0,23 9,21 9,15 21,15 109,0 77,-39 68,3 33,3 33,9 26,6 30,12 53,27 42,23 -6,15 -18,18 -9,26 -9,27 0,39 -3,17 0,21 0,39 -6,29 0,27 -29,71 -9,104 -6,59 -3,23 0,24 -12,36 -6,41 0,92 204,0 24,3 27,15 21,20 23,33 18,133 -9,36 -15,47 -12,65 -11,30 -6,9 -3,12 -9,6 -6,6 -6,0 -3,0 0,2 -6,3 -15,-5 -12,-6 -94,20 -48,9 -20,9 -15,15 -45,24 -38,17 -130,36 -18,3 -18,9 -41,26 -54,33 -59,44 -187,131 -23,15 -21,11 -33,18 -14,0 -9,0 -9,-3 -3,-6 -95,77 113,95 115,56 -21,74 -168,243 -134,116 -109,165 -225,187 -113,115 -59,95 21,113 186,-21 74,-38 172,74 27,11 32,27 33,33 38,44 113,166 169,0 23,3 9,3 12,9 6,6 9,12 15,26 186,130 356,169 154,113 91,169 131,0 15,-6 5,-3 9,0 3,-6 6,-3 12,-9 0,-9 3,-6 6,-15 0,-20 0,-18 53,-18 9,-6 12,0 6,0 6,9 0,6 0,12 -6,15 -6,20 -38,62 -36,86 -12,21 -9,15 -9,9 -6,6 -8,-3 -6,-3 -6,-9 -3,-15 -74,0 -95,39 -92,112 -21,169 60,166 53,-18 59,-92 74,-77 71,-68 77,-44 15,-12 12,-9 9,-9 6,-6 0,-6 -3,-6 -18,-9 113,-112 35,-74 18,-45 18,-38 23,-68 54,-279 20,-59 3,-18 9,-14 30,-36 15,-21 20,-17 54,-42 131,-151 59,-95 9,-32 21,-36 26,-38 15,-24 21,-21 38,-35 0,9 9,6 9,3 18,0 36,-3 -3,3 3,5 20,12 21,9 12,15 0,15 -12,18 -56,171 -113,54 -59,77 -146,133 -21,53 -15,27 -20,32 -27,36 -33,38 0,75 57,0 26,-6 39,-15 39,-24 48,-30 26,-35 30,-30 27,-26 26,-21 21,-21 21,-15 17,-14 18,-6 15,-18 18,-21 21,-29 23,-33 151,-261 21,-50 24,-38 23,-33 24,-27 95,-130 53,-204 15,-45 27,-41 53,-83 15,-33 23,-23 33,-33 18,-15 23,-9 231,-207 69,-74 20,-27 6,-11 9,-6 6,-9 -3,-3 113,-151 77,-169 -21,-569 3,12 6,6 6,-3 6,-6 35,-154 9,-26 18,-21 20,-27 27,-18 3,-41 12,-36 18,-38 26,-36 92,-130 453,-355 -9,0 3,-3 6,-9 15,-9 39,-41 44,-39 47,-44 57,-45 20,-20 21,-15 6,-6 9,0 9,3 121,3 77,-15 -21,3 -8,6 11,6 12,-3 18,0 38,-9 45,-12 56,-15 110,-56 23,-15 21,-12 15,-12 12,-5 3,-6 0,-3 -6,-3 -9,0 222,-95 -18,-56 42,-39 44,-32 65,-39 45,-18 50,3 317,30 169,41 411,-41 95,-187 -6,-71 77,-50 39,-18 41,-9 36,-17 17,-12 21,-15 36,-42 41,-47 39,-47 32,-45 21,-41 18,-36 56,-222 6,-35 12,-24 9,-15 12,-3 77,-112 26,-51 33,-50 38,-53 48,-51 8,-17 12,-12 24,-21 18,-15 18,-6 36,-41 154,-285 33,-278 12,-95 8,-94 0,-187 -3,-36 9,-17 9,-9 21,6 112,-75 0,-6 0,-3 3,0 6,-6 12,-12 0,-6 0,-3 3,0 6,-6 12,-12 0,-11 0,-6 0,-3 3,0 6,-18 0,-12 0,-6 0,-3 3,0 3,-18 0,-115 56,-148 0,-151 21,-53 53,-77 21,-134 38,-1421 74,-21 92,-130 77,74 56,0 74,-74 113,-225 243,-338 53,-65 50,-62 45,-59 41,-57 54,-77 11,-20 15,-15 21,-21 15,-15 15,-3 59,-47 56,-44 44,-42 45,-35 320,-359 35,-44 42,-51 44,-59 50,-68 36,-74 33,-62 26,-56 12,-27 15,-21 12,-35 12,-27 77,-225 5,-24 0,-9 3,-6 6,-11 6,-30 3,-18 6,-15 0,-47 0,-35 3,-30 6,-18 0,-29 0,-15 3,-12 0,-30 0,-15 3,-11 0,-6 -6,-125 -18,-109 -12,-30 -5,-21 -6,-17 3,-9 -18,-98 -12,-38 -6,-33 -3,-56 -18,-107 -35,-80 -24,-59 -21,-53 -50,-98 -95,-127 -23,-27 -12,-12 -9,-6 -24,-12 -24,-3 -77,0 -112,21 -56,0 -148,-21 -60,0 -91,-17 -77,-39 -39,-35 -33,-27 -32,-21 -27,-9 -26,-17 -9,-15 -3,-15 -6,-21 0,-18 9,-47 -42,-30 -35,-35 -39,-45 -53,-65 -56,-47 -30,-27 -30,-15 -29,-5 -24,8 -95,-35 -83,-33 -71,-29 -53,-27 -47,-30 -33,-26 -24,-24 -5,-21 -12,-26 -12,-21 -18,-15 -21,-9 -89,-23 -32,-24 -18,-15 -15,-12 -35,-29 -18,-18 -6,-6 -3,-3 -6,-6 -166,-38 -883,-18 -113,-36 -207,-18 -112,-76 -6504,7632 z" id="path3153" inkscape:connector-curvature="0" style="fill:#e30016;stroke:none"/>
      </g>
     </g>
     <g class="com.sun.star.drawing.PolyPolygonShape" id="g3155">
      <g id="id4">
       <path d="m 15506,8557 -74,0 -169,21 -38,56 -24,21 -15,6 -12,9 -29,9 -18,3 -15,6 -109,-36 -60,36 -91,17 0,-127 -39,-266 -77,-36 -47,-6 -48,-9 -47,-20 -24,-12 -12,-6 -5,-3 -3,0 -92,-48 -12,-8 -9,-6 -18,-15 -20,-18 -18,-18 -33,-29 0,6 -3,5 -9,0 -9,0 -59,-26 -53,-33 -92,-35 -246,35 -319,-148 -249,3 -54,36 -26,14 -12,6 -6,9 -9,12 -3,6 3,9 -240,423 -12,-8 -11,-3 -18,3 -21,14 -89,65 -59,69 -18,8 -17,9 -12,0 -6,0 -3,0 0,3 -18,0 -302,-41 -44,-6 -21,-6 -15,-3 -18,-12 -12,-9 -20,-20 17,-57 113,-17 47,-9 18,0 15,0 9,0 6,0 0,9 169,-39 23,-15 30,-15 29,-20 30,-24 18,-38 24,-30 23,-27 30,-17 169,-149 29,-29 18,-21 6,-18 0,-9 41,-130 0,-95 -136,-74 -29,-17 -24,-9 -21,-3 -18,9 -94,0 -187,-18 -56,18 -51,17 -44,18 -39,21 -29,12 -18,6 -21,9 -53,14 -65,18 -92,15 -21,27 -14,32 -21,74 -30,74 -44,74 -24,30 -18,24 -17,14 -18,9 -113,95 -91,-21 74,-151 -74,-169 23,-74 30,-62 29,-56 30,-50 113,-166 68,-104 80,-86 14,-17 21,-12 45,-15 88,-30 33,-23 12,-12 6,-6 0,-3 3,0 6,0 0,-6 0,-3 3,0 6,-6 11,-12 15,-24 -38,-168 -169,-205 -130,-94 -36,-27 -30,-27 -26,-29 -21,-30 -21,-33 -14,-35 -21,-83 -77,-187 -45,-385 -6,-2 -2,-3 -6,-12 -6,-12 -3,-6 0,-3 -6,-27 -92,0 -130,92 -60,59 -242,412 -21,33 -9,26 -9,18 0,15 -71,115 -189,131 -320,-18 -30,-3 -21,9 -14,9 -9,20 -95,0 -113,-35 -278,-133 -415,109 -14,9 -9,15 -3,21 9,29 17,98 -5,24 -6,11 -3,6 0,9 -12,9 -9,12 -21,24 -151,38 -35,-9 -30,-6 -56,-17 -27,-12 -21,-9 -38,-24 -24,-15 -18,-6 -20,0 -18,9 -68,30 -59,9 -54,26 -148,98 -59,48 -56,65 -45,23 -32,18 -111,33 -186,95 -51,-24 -44,-24 -39,-24 -32,-20 -51,-42 -26,-35 -134,-187 6,-47 3,-48 -3,-47 -6,-47 -29,-24 -24,-21 -24,-23 -17,-24 -12,-18 -6,-15 -9,-35 0,-42 9,-41 38,-225 9,-54 12,-44 9,-41 9,-33 3,-33 6,-23 3,-21 6,-12 17,-189 3,-27 0,-12 3,-6 -3,-9 -3,-3 0,3 -17,-3 -12,-6 -6,-5 -3,-3 -6,-6 -12,-15 -56,-77 -30,-36 -20,-17 -15,-9 -9,6 -21,-187 -56,-38 -148,17 0,187 -56,77 -27,24 -27,29 -38,30 -39,29 -23,9 -18,12 -18,6 -9,9 -9,0 -3,3 -3,0 6,0 -180,175 -24,5 -24,9 -53,18 -355,36 -95,74 -130,38 -412,-56 -36,-113 -94,-17 -60,0 -127,17 36,169 11,33 18,-18 27,3 24,12 20,26 15,33 15,44 27,107 -9,0 3,21 -6,26 -3,30 -12,59 38,184 92,95 151,38 21,77 -59,36 -54,77 -59,109 -151,95 -130,39 -36,5 -26,12 -21,9 -9,12 -35,27 -39,32 -44,33 -51,38 -112,0 -113,18 -130,113 -207,20 -36,-112 -15,-39 -12,-15 -8,-8 -27,-15 -18,-3 -15,3 -38,-9 -36,-12 -32,-24 -27,-29 0,-169 -127,-113 -116,-38 -20,74 -12,30 -12,20 -6,0 -3,0 0,3 -6,3 -9,0 -6,0 -151,-130 -6,9 -3,12 -6,9 -3,11 -11,15 -12,18 -18,12 -15,12 -21,6 -17,8 -42,9 -32,-9 -172,0 -130,18 -33,0 -30,9 -35,9 -33,21 -74,38 -20,6 -15,9 -18,12 -9,6 6,3 -21,169 -6,35 0,27 3,18 9,11 6,0 12,-9 15,-17 20,-27 243,39 18,109 -74,59 -187,0 -29,3 -30,15 -29,21 -24,35 -39,57 -17,56 0,56 6,51 11,47 12,38 15,36 12,27 15,20 18,15 20,9 95,18 36,6 23,12 6,8 -3,6 -6,6 27,30 3,6 6,9 12,17 17,27 6,12 3,6 6,9 3,12 6,14 3,12 0,6 0,3 3,6 -3,6 0,9 0,18 -3,35 -6,15 -3,18 -6,32 -35,169 -12,24 -6,24 -3,38 3,27 6,9 12,8 -39,205 -6,97 6,72 -3,41 -6,47 -103,418 -9,47 -3,18 0,15 0,9 3,6 9,0 -12,26 -6,36 -3,38 3,48 -3,0 0,3 0,6 0,11 -3,18 -6,15 -3,12 -12,6 -9,6 -11,0 -9,0 -95,-95 -113,-74 -91,0 -151,151 -116,36 -222,0 -74,20 -130,131 -113,59 -210,222 -36,95 18,56 6,27 9,29 12,53 0,9 3,12 6,21 0,18 3,18 -3,12 -3,18 -6,18 -6,24 -24,50 -15,30 -14,35 -60,56 -62,54 -68,59 -59,95 -53,334 35,113 21,53 15,21 20,21 169,245 113,131 56,38 38,77 -20,53 -12,24 -12,27 -6,3 -3,6 -6,11 -6,3 -3,6 -6,12 54,-15 23,-8 21,-3 18,3 15,8 91,15 208,190 38,74 299,0 24,-36 30,-26 29,-21 30,-9 3,-6 6,-3 12,-6 14,-12 3,-17 0,-9 0,-6 18,-54 77,-38 53,0 0,299 18,133 0,169 59,74 92,-21 74,-74 376,0 151,57 24,6 21,14 15,15 14,21 134,0 94,-74 92,-113 190,18 524,-545 409,-15 59,92 0,95 -12,27 -6,32 -6,33 3,38 0,243 39,190 20,71 33,77 59,112 50,42 48,38 44,36 42,32 32,24 6,3 9,6 18,12 26,17 24,15 36,15 41,15 92,27 882,281 0,74 0,15 6,14 9,9 18,12 15,3 24,3 26,0 33,0 243,39 207,-18 130,53 95,151 38,172 6,30 6,38 3,44 0,24 3,30 0,225 -3,21 0,32 3,39 6,50 3,56 6,68 9,77 12,89 845,39 0,74 -21,65 -9,59 -9,47 0,36 0,24 9,23 9,21 21,24 115,151 18,24 21,20 23,15 30,15 15,24 18,26 35,42 30,32 15,12 17,15 21,18 12,23 0,24 -12,30 6503,-7633 z" id="path3158" inkscape:connector-curvature="0" style="fill:#1b1918;stroke:none"/>
      </g>
     </g>
     <g class="com.sun.star.drawing.ClosedBezierShape" id="g3160">
      <g id="id5">
       <path d="m 14973,7936 3802,973 -857,674 c 59,521 -532,764 -797,1148 l -4306,4596 c 20,484 -608,845 -1329,1082 -184,573 -553,899 -1108,978 l -1385,1397 -1483,-3755 3755,-3940 c 698,-525 1256,-259 2092,-1571 513,-384 747,-1047 1538,-1199 l 78,-383 z" id="path3163" inkscape:connector-curvature="0" style="fill:#ffffff;stroke:none"/>
       <path d="m 14973,7936 3802,973 -857,674 c 59,521 -532,764 -797,1148 l -4306,4596 c 20,484 -608,845 -1329,1082 -184,573 -553,899 -1108,978 l -1385,1397 -1483,-3755 3755,-3940 c 698,-525 1256,-259 2092,-1571 513,-384 747,-1047 1538,-1199 l 78,-383 z" id="path3165" inkscape:connector-curvature="0" style="fill:none;stroke:#ffffff;stroke-width:8;stroke-linejoin:miter"/>
      </g>
     </g>
     <g class="Group" id="g3167">
      <g class="com.sun.star.drawing.ClosedBezierShape" id="g3169">
       <g id="id6">
        <path d="m 8694,14111 0,1284 -1298,0 0,-3684 1888,0 c 336,0 695,66 946,307 240,229 324,542 324,867 0,343 -95,663 -350,901 -276,258 -674,325 -1038,325 l -472,0 z m 0,0 0,0 z m 4335,-1320 0,2604 -1294,0 0,-2604 -1089,0 0,-1080 3473,0 0,1080 -1090,0 z m 0,0 0,0 z m 4231,633 c 130,60 249,142 340,255 143,178 201,393 201,619 0,193 -44,375 -140,541 -94,161 -222,288 -384,381 -128,74 -301,108 -447,127 -101,13 -202,26 -304,36 -62,6 -127,12 -190,12 l -1956,0 0,-3684 2113,0 c 303,0 614,65 843,277 202,187 304,421 304,697 0,226 -70,429 -218,600 -47,54 -102,100 -162,139 z m 0,0 0,0 z m -8566,-238 149,0 c 102,0 278,-10 360,-80 59,-51 86,-112 86,-190 0,-77 -23,-142 -77,-197 l -1,-1 c -66,-70 -238,-79 -326,-79 l -191,0 0,547 z m 0,0 0,0 z m 6989,-118 352,0 c 73,0 214,-7 274,-58 47,-42 59,-104 59,-164 0,-59 -13,-112 -58,-151 -59,-51 -195,-58 -268,-58 l -359,0 0,431 z m 0,0 0,0 z m 0,1358 432,0 c 88,0 245,-8 315,-70 55,-47 75,-107 75,-178 0,-66 -20,-118 -71,-160 -72,-59 -233,-67 -321,-67 l -430,0 0,475 z" id="path3172" inkscape:connector-curvature="0" style="fill:#ffffff;stroke:none"/>
        <path d="m 8694,14111 0,1284 -1298,0 0,-3684 1888,0 c 336,0 695,66 946,307 240,229 324,542 324,867 0,343 -95,663 -350,901 -276,258 -674,325 -1038,325 l -472,0 z" id="path3174" inkscape:connector-curvature="0" style="fill:none;stroke:#ffffff;stroke-width:35;stroke-linejoin:miter"/>
        <path d="m 13029,12791 0,2604 -1294,0 0,-2604 -1089,0 0,-1080 3473,0 0,1080 -1090,0 z" id="path3176" inkscape:connector-curvature="0" style="fill:none;stroke:#ffffff;stroke-width:35;stroke-linejoin:miter"/>
        <path d="m 17260,13424 c 130,60 249,142 340,255 143,178 201,393 201,619 0,193 -44,375 -140,541 -94,161 -222,288 -384,381 -128,74 -301,108 -447,127 -101,13 -202,26 -304,36 -62,6 -127,12 -190,12 l -1956,0 0,-3684 2113,0 c 303,0 614,65 843,277 202,187 304,421 304,697 0,226 -70,429 -218,600 -47,54 -102,100 -162,139 z" id="path3178" inkscape:connector-curvature="0" style="fill:none;stroke:#ffffff;stroke-width:35;stroke-linejoin:miter"/>
        <path d="m 8694,13186 149,0 c 102,0 278,-10 360,-80 59,-51 86,-112 86,-190 0,-77 -23,-142 -77,-197 l -1,-1 c -66,-70 -238,-79 -326,-79 l -191,0 0,547 z" id="path3180" inkscape:connector-curvature="0" style="fill:none;stroke:#ffffff;stroke-width:35;stroke-linejoin:miter"/>
        <path d="m 15683,13068 352,0 c 73,0 214,-7 274,-58 47,-42 59,-104 59,-164 0,-59 -13,-112 -58,-151 -59,-51 -195,-58 -268,-58 l -359,0 0,431 z" id="path3182" inkscape:connector-curvature="0" style="fill:none;stroke:#ffffff;stroke-width:35;stroke-linejoin:miter"/>
        <path d="m 15683,14426 432,0 c 88,0 245,-8 315,-70 55,-47 75,-107 75,-178 0,-66 -20,-118 -71,-160 -72,-59 -233,-67 -321,-67 l -430,0 0,475 z" id="path3184" inkscape:connector-curvature="0" style="fill:none;stroke:#ffffff;stroke-width:35;stroke-linejoin:miter"/>
       </g>
      </g>
     </g>
     <g class="com.sun.star.drawing.ClosedBezierShape" id="g3186">
      <g id="id7">
       <path d="m 7509,11824 1775,0 c 387,0 677,91 869,276 193,183 289,446 289,786 0,349 -105,622 -315,818 -210,197 -530,295 -961,295 l -584,0 0,1284 -1073,0 0,-3459 z m 0,0 0,0 z m 1073,1475 261,0 c 206,0 350,-36 434,-108 83,-71 125,-163 125,-274 0,-109 -36,-201 -109,-277 -71,-76 -207,-114 -407,-114 l -304,0 0,773 z m 0,0 0,0 z m 2177,-1475 3248,0 0,854 -1090,0 0,2605 -1069,0 0,-2605 -1089,0 0,-854 z m 0,0 0,0 z m 3734,0 2000,0 c 333,0 589,82 767,247 179,166 268,370 268,613 0,206 -63,381 -190,528 -86,97 -210,174 -373,231 248,59 431,162 548,307 117,146 176,329 176,548 0,181 -42,342 -125,485 -84,144 -197,256 -342,340 -90,52 -225,89 -406,113 -241,31 -400,47 -479,47 l -1844,0 0,-3459 z m 0,0 0,0 z m 1078,1357 464,0 c 167,0 283,-29 349,-86 65,-58 97,-141 97,-249 0,-101 -32,-180 -97,-237 -66,-57 -180,-85 -342,-85 l -471,0 0,657 z m 0,0 0,0 z m 0,1359 545,0 c 184,0 314,-32 388,-97 76,-66 114,-154 114,-265 0,-102 -37,-184 -112,-246 -75,-62 -205,-93 -393,-93 l -542,0 0,701 z" id="path3189" inkscape:connector-curvature="0" style="fill:#1b1918;stroke:none"/>
       <path d="m 7509,11824 1775,0 c 387,0 677,91 869,276 193,183 289,446 289,786 0,349 -105,622 -315,818 -210,197 -530,295 -961,295 l -584,0 0,1284 -1073,0 0,-3459 z" id="path3191" inkscape:connector-curvature="0" style="fill:none;stroke:#ffffff;stroke-width:35;stroke-linejoin:miter"/>
       <path d="m 8582,13299 261,0 c 206,0 350,-36 434,-108 83,-71 125,-163 125,-274 0,-109 -36,-201 -109,-277 -71,-76 -207,-114 -407,-114 l -304,0 0,773 z" id="path3193" inkscape:connector-curvature="0" style="fill:none;stroke:#ffffff;stroke-width:35;stroke-linejoin:miter"/>
       <path d="m 10759,11824 3248,0 0,854 -1090,0 0,2605 -1069,0 0,-2605 -1089,0 0,-854 z" id="path3195" inkscape:connector-curvature="0" style="fill:none;stroke:#ffffff;stroke-width:35;stroke-linejoin:miter"/>
       <path d="m 14493,11824 2000,0 c 333,0 589,82 767,247 179,166 268,370 268,613 0,206 -63,381 -190,528 -86,97 -210,174 -373,231 248,59 431,162 548,307 117,146 176,329 176,548 0,181 -42,342 -125,485 -84,144 -197,256 -342,340 -90,52 -225,89 -406,113 -241,31 -400,47 -479,47 l -1844,0 0,-3459 z" id="path3197" inkscape:connector-curvature="0" style="fill:none;stroke:#ffffff;stroke-width:35;stroke-linejoin:miter"/>
       <path d="m 15571,13181 464,0 c 167,0 283,-29 349,-86 65,-58 97,-141 97,-249 0,-101 -32,-180 -97,-237 -66,-57 -180,-85 -342,-85 l -471,0 0,657 z" id="path3199" inkscape:connector-curvature="0" style="fill:none;stroke:#ffffff;stroke-width:35;stroke-linejoin:miter"/>
       <path d="m 15571,14540 545,0 c 184,0 314,-32 388,-97 76,-66 114,-154 114,-265 0,-102 -37,-184 -112,-246 -75,-62 -205,-93 -393,-93 l -542,0 0,701 z" id="path3201" inkscape:connector-curvature="0" style="fill:none;stroke:#ffffff;stroke-width:35;stroke-linejoin:miter"/>
      </g>
     </g>
    </g>
   </g>
  </g>
 </g>
</svg>